<?xml version="1.0" encoding="utf-8"?>
<!-- Generator: Adobe Illustrator 21.1.0, SVG Export Plug-In . SVG Version: 6.00 Build 0)  -->
<svg version="1.1" id="Layer_1" xmlns="http://www.w3.org/2000/svg" xmlns:xlink="http://www.w3.org/1999/xlink" x="0px" y="0px"
	 viewBox="0 0 31.9 56.9" width="32px" height="57px" style="enable-background:new 0 0 31.9 56.9;" xml:space="preserve">
<path id="Back_Icon" style="fill:#FFFFFF;stroke:#000000;stroke-linejoin:round;" d="M28.8,56.4c0.7,0,1.4-0.3,1.9-0.8
	c1-1,1-2.6,0-3.6c0,0,0,0,0,0L6.8,28.5L30.6,4.9c1-1,1-2.6,0-3.7c0,0,0,0,0,0c-1-1-2.7-1-3.7,0L1.3,26.6c-1,1-1,2.6,0,3.6
	c0,0,0,0,0,0l25.6,25.4C27.4,56.2,28.1,56.4,28.8,56.4z"/>
</svg>
