<?xml version="1.0" encoding="utf-8"?>
<!-- Generator: Adobe Illustrator 21.1.0, SVG Export Plug-In . SVG Version: 6.00 Build 0)  -->
<svg version="1.1" id="Layer_1" xmlns="http://www.w3.org/2000/svg" xmlns:xlink="http://www.w3.org/1999/xlink" x="0px" y="0px"
	 viewBox="0 0 85 130" height="130px" width="85px" style="enable-background:new 0 0 85 130;" xml:space="preserve">
<path id="Take_Away" d="M80.7,40.1c-0.1-2.3-2-4.1-4.4-4.1H61.2l-3.6-23.1c-1.3-8.3-9.2-14-17.5-12.7
	c-6.5,1-11.6,6.2-12.7,12.7l-3.7,23.1H8.6c-2.3,0-4.2,1.8-4.4,4.1L0,125.4c-0.1,2.4,1.7,4.4,4.1,4.6c0.1,0,0.2,0,0.2,0h76.3
	c2.4,0,4.4-1.9,4.4-4.3c0-0.1,0-0.2,0-0.2L80.7,40.1z M31.6,13.5c1-6,6.6-10.1,12.7-9.2c4.7,0.8,8.4,4.5,9.2,9.2L57,35.9H28
	L31.6,13.5z M80.7,125.7c0,0-0.1,0.1-0.1,0.1H4.4c0,0-0.1,0-0.1-0.1c0,0,0-0.1,0-0.1l4.3-85.4c0-0.1,0.1-0.1,0.1-0.1h14.5l-0.7,4.3
	c-0.2,1.1,0.6,2.2,1.8,2.4c0,0,0,0,0,0c0.1,0,0.2,0,0.3,0c1,0,1.9-0.8,2.1-1.8l0.8-5h30.3l0.8,5c0.2,1.2,1.3,1.9,2.4,1.8
	s1.9-1.3,1.8-2.4l-0.7-4.3h14.5c0.1,0,0.1,0.1,0.1,0.1L80.7,125.7C80.8,125.7,80.8,125.7,80.7,125.7L80.7,125.7z M42.5,53.9
	c-1.2,0-2.1,0.9-2.1,2.1v11.4h-2.5V56c0-1.2-0.9-2.1-2.1-2.1s-2.1,0.9-2.1,2.1v11.4h-2.5V56c0-1.2-0.9-2.1-2.1-2.1
	c-1.2,0-2.1,0.9-2.1,2.1v15.7c0,3.6,3,6.6,6.6,6.6h0.1v36.1c0,1.2,0.9,2.1,2.1,2.1s2.1-0.9,2.1-2.1V78.3H38c3.6,0,6.6-3,6.6-6.6V56
	C44.6,54.8,43.7,53.9,42.5,53.9C42.5,53.9,42.5,53.9,42.5,53.9z M40.4,71.7c0,1.3-1.1,2.4-2.4,2.4h-4.5c-1.3,0-2.4-1.1-2.4-2.4v-0.1
	h9.3L40.4,71.7L40.4,71.7z M58.3,58.1c-0.3-2.5-2.5-4.2-4.9-4c-2.3,0.2-4,2.2-4,4.4v55.9c0,1.2,1,2.1,2.2,2.1c1.1,0,2-0.9,2.1-2.1
	v-13.6h1.9c3.7,0,6.6-3,6.6-6.6c0-0.2,0-0.5,0-0.7L58.3,58.1z M57.3,95.8c-0.5,0.5-1.1,0.8-1.8,0.8h-1.9V58.5c0-0.1,0.1-0.2,0.3-0.2
	c0.1,0,0.2,0.1,0.2,0.2l3.8,35.5C58,94.6,57.7,95.3,57.3,95.8z"/>
</svg>
