<?xml version="1.0" encoding="utf-8"?>
<!-- Generator: Adobe Illustrator 21.1.0, SVG Export Plug-In . SVG Version: 6.00 Build 0)  -->
<svg version="1.1" id="Layer_1" xmlns="http://www.w3.org/2000/svg" xmlns:xlink="http://www.w3.org/1999/xlink" x="0px" y="0px"
	 viewBox="0 0 155 166.6" width="155px" height="167px" style="enable-background:new 0 0 155 166.6;" xml:space="preserve">
<path id="Cart" d="M44.2,109.6h91.9c10.4,0,18.9-8.5,18.9-18.9v-39c0-0.1,0-0.1,0-0.2c0-0.1,0-0.2,0-0.2
	s0-0.1,0-0.2c0-0.1,0-0.2-0.1-0.2c0-0.1,0-0.1-0.1-0.2s0-0.1-0.1-0.2c0-0.1-0.1-0.2-0.1-0.2c0-0.1-0.1-0.1-0.1-0.2l-0.1-0.2
	c0-0.1-0.1-0.1-0.1-0.2s-0.1-0.1-0.1-0.2c0-0.1-0.1-0.1-0.1-0.2c0-0.1-0.1-0.1-0.1-0.2s-0.1-0.1-0.1-0.2c0-0.1-0.1-0.1-0.1-0.1
	l-0.2-0.2c-0.1,0-0.1-0.1-0.2-0.1s-0.1-0.1-0.2-0.1s-0.1-0.1-0.2-0.1c-0.1,0-0.1-0.1-0.2-0.1l-0.2-0.1l-0.2-0.1l-0.2-0.1
	c-0.1,0-0.1,0-0.2-0.1c-0.1,0-0.2-0.1-0.2-0.1c-0.1,0-0.1,0-0.2,0c-0.1,0-0.3,0-0.4-0.1L34.5,31.5V15.3c0-0.2,0-0.3,0-0.5
	c0,0,0-0.1,0-0.1c0-0.1,0-0.2,0-0.3c0-0.1,0-0.2-0.1-0.3c0-0.1,0-0.1,0-0.2c0-0.1-0.1-0.2-0.1-0.3c0,0,0-0.1,0-0.1
	c0-0.1-0.1-0.2-0.1-0.3c0,0,0-0.1-0.1-0.1c0-0.1-0.1-0.1-0.1-0.2c0-0.1-0.1-0.1-0.1-0.2s-0.1-0.1-0.1-0.2s-0.1-0.1-0.1-0.2l-0.1-0.1
	L33.2,12l-0.1-0.1c-0.1-0.1-0.2-0.1-0.2-0.2c0,0-0.1-0.1-0.1-0.1c-0.1-0.1-0.1-0.1-0.2-0.2c-0.1-0.1-0.2-0.1-0.3-0.2
	c0,0-0.1,0-0.1-0.1C32,11.1,31.8,11,31.7,11L6.4,0.4c-2.4-1-5.1,0.1-6.1,2.5s0.1,5.1,2.5,6.1l22.4,9.4v101.2
	c0,9.5,7.1,17.5,16.5,18.7c-5.3,8.9-2.4,20.3,6.5,25.6s20.3,2.4,25.6-6.5c1.7-2.9,2.6-6.2,2.6-9.5c0-3.3-0.9-6.6-2.6-9.4h41.6
	c-1.7,2.8-2.6,6.1-2.6,9.4c0,10.3,8.3,18.7,18.7,18.7c10.3,0,18.7-8.3,18.7-18.7c0-10.3-8.3-18.7-18.7-18.7c0,0,0,0,0,0H44.2
	c-5.3,0-9.7-4.3-9.7-9.7V107C37.4,108.7,40.8,109.6,44.2,109.6z M67.2,147.8c0,5.2-4.2,9.4-9.4,9.4c-5.2,0-9.4-4.2-9.4-9.4
	c0-5.2,4.2-9.4,9.4-9.4c0,0,0,0,0,0C63,138.4,67.2,142.6,67.2,147.8z M141.1,147.8c0,5.2-4.2,9.4-9.4,9.4c-5.2,0-9.4-4.2-9.4-9.4
	c0-5.2,4.2-9.4,9.4-9.4c0,0,0,0,0,0C136.8,138.4,141,142.6,141.1,147.8z M136.1,100.4H44.2c-5.3,0-9.7-4.3-9.7-9.7V40.8l111.3,15.3
	v34.6C145.8,96.1,141.4,100.4,136.1,100.4z"/>
</svg>
