<?xml version="1.0" encoding="utf-8"?>
<!-- Generator: Adobe Illustrator 21.1.0, SVG Export Plug-In . SVG Version: 6.00 Build 0)  -->
<svg version="1.1" id="Layer_1" xmlns="http://www.w3.org/2000/svg" xmlns:xlink="http://www.w3.org/1999/xlink" x="0px" y="0px"
	 viewBox="0 0 210 210" width="210px" height="210px" style="enable-background:new 0 0 210 210;" xml:space="preserve">
<path id="Tick_Icon" d="M62,85L47.2,99.8L94.5,147l105-105l-14.7-14.7l-90.3,90.3L62,85z M189,105
	c0,46.4-37.6,84-84,84s-84-37.6-84-84s37.6-84,84-84c7.8-0.1,15.6,1,23.1,3.1l16.8-16.8C132.3,3.1,118.7,0,105,0
	C47.2,0,0,47.2,0,105s47.2,105,105,105s105-47.2,105-105H189z"/>
</svg>
