<?xml version="1.0" encoding="utf-8"?>
<!-- Generator: Adobe Illustrator 21.1.0, SVG Export Plug-In . SVG Version: 6.00 Build 0)  -->
<svg version="1.1" id="Layer_1" xmlns="http://www.w3.org/2000/svg" xmlns:xlink="http://www.w3.org/1999/xlink" x="0px" y="0px"
	 viewBox="0 0 83.5 84.9" height="85px" width="84px" style="enable-background:new 0 0 83.5 84.9;" xml:space="preserve">
<path id="_Coin" d="M46.1,0c-1.5,0-3,0.1-4.4,0.3C40.3,0.1,38.8,0,37.4,0c-10,0-19.4,4.4-26.5,12.5c-0.3,0.4-0.6,0.7-0.9,1.1
	c0,0,0,0,0,0C6,18.5,3.2,24.1,1.6,30.2v0C0.5,34.2,0,38.3,0,42.5c0,6.2,1.2,12.3,3.5,18c0,0.1,0,0.1,0.1,0.2c1.3,3.2,3,6.2,5.1,9
	c0,0.1,0.1,0.2,0.2,0.2c2,2.7,4.3,5.1,6.9,7.2c0.1,0.1,0.2,0.1,0.3,0.2c6,4.9,13.5,7.6,21.3,7.6c1.5,0,2.9-0.1,4.4-0.3
	c1.5,0.2,2.9,0.3,4.4,0.3c20.6,0,37.3-19.1,37.3-42.5S66.7,0,46.1,0z M15.9,67.4h-5.3c-1.3-1.9-2.5-3.8-3.4-5.9h5.5
	c0.2,0.5,0.5,1,0.7,1.5c0.1,0.2,0.2,0.4,0.3,0.7c0.3,0.6,0.6,1.2,0.9,1.7c0.1,0.2,0.2,0.4,0.4,0.6C15.4,66.5,15.6,66.9,15.9,67.4z
	 M6.5,24.9h5.6c-0.6,1.4-1.1,2.9-1.5,4.4H4.9C5.3,27.8,5.9,26.3,6.5,24.9L6.5,24.9z M11.7,16.1h5.2c-1.3,1.9-2.4,3.8-3.4,5.9H7.9
	C9,19.9,10.3,17.9,11.7,16.1L11.7,16.1z M2.9,42.5c0-1,0-2,0.1-2.9h5.9c0,0,0,0,0,0c-0.1,1-0.1,1.9-0.1,2.9c0,0.5,0,1,0,1.5H3
	C3,43.4,2.9,43,2.9,42.5z M9,46.9c0.1,0.6,0.1,1.2,0.2,1.8c0,0.1,0,0.1,0,0.1c0.1,0.8,0.2,1.6,0.4,2.4H3.8c-0.3-1.4-0.5-2.9-0.7-4.4
	H9L9,46.9z M9.9,32.2c-0.1,0.3-0.1,0.6-0.2,0.8v0c-0.2,1.2-0.4,2.3-0.6,3.6H3.3c0.2-1.5,0.5-2.9,0.8-4.4H9.9L9.9,32.2z M10.2,54.2
	c0,0.2,0.1,0.4,0.1,0.5c0,0.1,0,0.1,0,0.2c0.2,0.9,0.5,1.8,0.8,2.6c0.1,0.2,0.1,0.4,0.2,0.5c0.1,0.2,0.1,0.3,0.2,0.5H6
	c-0.6-1.4-1-2.9-1.4-4.4H10.2z M27.2,5.9h-2.8c2.2-1,4.4-1.8,6.8-2.3C29.8,4.3,28.4,5,27.2,5.9L27.2,5.9z M19.3,8.8h4.1
	c-1.3,1.2-2.6,2.4-3.7,3.7c-0.2,0.2-0.4,0.4-0.6,0.7h-4.8C15.8,11.6,17.5,10.1,19.3,8.8L19.3,8.8z M12.9,70.3h5
	c0.2,0.2,0.3,0.4,0.5,0.6c0.4,0.6,0.9,1.1,1.4,1.6c0.3,0.3,0.5,0.6,0.8,0.9s0.6,0.6,0.9,0.9c0.1,0.1,0.2,0.2,0.3,0.4h-4.4
	C15.8,73.4,14.3,71.9,12.9,70.3L12.9,70.3z M31.1,81.4c-3.3-0.7-6.5-2-9.5-3.8h3.5c0.2,0.1,0.4,0.3,0.6,0.4c0.3,0.2,0.6,0.4,0.9,0.7
	c0.6,0.4,1.2,0.8,1.8,1.2c0.3,0.2,0.5,0.3,0.8,0.5c0.5,0.3,0.9,0.5,1.4,0.8C30.8,81.2,31,81.3,31.1,81.4L31.1,81.4z M46.1,82
	c-1.2,0-2.3-0.1-3.4-0.2l-0.6-0.1l-0.2,0c-0.5-0.1-1-0.2-1.5-0.2l-0.1,0c-0.5-0.1-1-0.2-1.5-0.3c-0.1,0-0.1,0-0.2-0.1
	c-0.4-0.1-0.9-0.2-1.3-0.4c-0.1,0-0.3-0.1-0.4-0.1c-0.4-0.1-0.8-0.2-1.1-0.4c-0.3-0.1-0.6-0.2-0.9-0.3c-0.2-0.1-0.4-0.2-0.6-0.2
	C26.1,76,19.6,69.5,15.9,61.3c0-0.1-0.1-0.1-0.1-0.2c-0.2-0.5-0.4-0.9-0.6-1.4c-0.1-0.2-0.1-0.3-0.2-0.5c-0.2-0.4-0.3-0.8-0.4-1.1
	c-0.1-0.2-0.2-0.5-0.2-0.7c-0.1-0.3-0.2-0.7-0.3-1c-0.1-0.3-0.2-0.5-0.2-0.8c-0.1-0.3-0.2-0.6-0.3-0.9c-0.1-0.3-0.2-0.6-0.2-0.8
	c-0.1-0.3-0.2-0.6-0.2-0.9c-0.1-0.3-0.1-0.6-0.2-0.9c-0.1-0.3-0.1-0.6-0.2-0.9c-0.1-0.3-0.1-0.6-0.2-0.9c-0.1-0.3-0.1-0.7-0.2-1
	c0-0.3-0.1-0.6-0.1-0.9c0-0.3-0.1-0.7-0.1-1.1c0-0.3-0.1-0.6-0.1-0.8c0-0.4-0.1-0.8-0.1-1.2c0-0.2,0-0.5,0-0.7c0-0.7,0-1.3,0-1.9
	s0-1.3,0-1.9c0-0.3,0-0.6,0.1-0.9c0-0.3,0-0.6,0.1-0.9c0-0.4,0.1-0.9,0.1-1.3c0-0.2,0-0.3,0.1-0.5c0.1-0.5,0.1-1.1,0.2-1.6
	c0-0.1,0-0.1,0-0.2c1.1-6.8,3.8-13.2,7.9-18.7c0.1-0.1,0.1-0.2,0.2-0.3c0.2-0.3,0.5-0.6,0.7-0.9c0.1-0.2,0.3-0.3,0.4-0.5
	c0.2-0.2,0.4-0.5,0.7-0.8c0.2-0.2,0.3-0.4,0.5-0.5c0.2-0.2,0.5-0.5,0.7-0.7c0.2-0.2,0.3-0.3,0.5-0.4c0.3-0.3,0.5-0.5,0.8-0.8
	c0.1-0.1,0.2-0.2,0.3-0.3c0.3-0.3,0.6-0.6,1-0.8c0,0,0,0,0,0c4.5-3.8,10-6.3,15.9-7.1l0.8-0.1C43.9,3,45,2.9,46.1,2.9
	c19,0,34.4,17.7,34.4,39.5S65.1,82,46.1,82L46.1,82z M46.1,12.4c0.9,0,1.8,0.1,2.7,0.2c0.1,0,0.1,0,0.2,0c0.8,0,1.5-0.7,1.5-1.5
	c0-0.7-0.6-1.4-1.3-1.5c-1-0.1-2-0.2-3-0.2h-0.1c-0.8,0-1.4,0.7-1.4,1.4c0,0,0,0,0,0C44.7,11.8,45.3,12.4,46.1,12.4L46.1,12.4z
	 M71.2,34.1c0.2,0.8,1,1.2,1.8,1c0.8-0.2,1.2-1,1-1.7c-0.2-1-0.5-1.9-0.9-2.9c-0.3-0.8-1.1-1.2-1.9-0.9c-0.8,0.3-1.2,1.1-0.9,1.9
	C70.8,32.3,71,33.2,71.2,34.1L71.2,34.1z M34.9,15.1c0.2,0,0.5-0.1,0.7-0.2c0.8-0.4,1.6-0.8,2.5-1.1c0.8-0.3,1.1-1.1,0.9-1.9
	c-0.3-0.8-1.1-1.1-1.9-0.9c-1,0.4-1.9,0.8-2.8,1.2c-0.7,0.4-1,1.3-0.6,2C33.8,14.8,34.4,15.1,34.9,15.1L34.9,15.1z M65.2,63
	c-0.6,0.7-1.2,1.4-1.8,2.1c-0.6,0.6-0.6,1.5,0,2.1s1.5,0.6,2.1,0c0.7-0.7,1.4-1.5,2-2.3c0.5-0.7,0.3-1.6-0.3-2
	C66.5,62.4,65.7,62.5,65.2,63L65.2,63z M73.7,41c-0.8,0-1.5,0.7-1.5,1.5c0,0.9,0,1.8-0.1,2.7c-0.1,0.8,0.5,1.5,1.3,1.6c0,0,0,0,0,0
	c0,0,0.1,0,0.1,0c0.8,0,1.4-0.6,1.5-1.3c0.1-1,0.1-1.9,0.1-2.9v-0.1C75.2,41.6,74.5,41,73.7,41C73.7,41,73.7,41,73.7,41L73.7,41z
	 M60.6,13.8c-0.9-0.6-1.7-1.1-2.7-1.5c-0.7-0.4-1.6-0.1-2,0.6c-0.4,0.7-0.1,1.6,0.6,2l0,0c0.8,0.4,1.6,0.9,2.4,1.4
	c0.7,0.4,1.6,0.3,2-0.4C61.4,15.2,61.3,14.3,60.6,13.8L60.6,13.8L60.6,13.8z M56.8,69.9c-0.8,0.4-1.6,0.8-2.5,1.1
	c-0.8,0.3-1.1,1.1-0.9,1.9c0.2,0.6,0.8,1,1.4,1c0.2,0,0.4,0,0.5-0.1c1-0.4,1.9-0.8,2.8-1.2c0.7-0.3,1.1-1.2,0.8-1.9
	s-1.2-1.1-1.9-0.8C56.9,69.9,56.8,69.9,56.8,69.9L56.8,69.9z M20,42.5c0-0.9,0-1.8,0.1-2.8c0.1-0.8-0.5-1.5-1.3-1.6
	c-0.8-0.1-1.5,0.5-1.6,1.3c0,0,0,0,0,0.1c-0.1,1-0.1,2-0.1,3v0c0,0.8,0.7,1.5,1.5,1.5c0,0,0,0,0,0C19.4,43.9,20,43.3,20,42.5z
	 M72.4,52.4c-0.8-0.3-1.6,0.2-1.9,0.9c-0.3,0.9-0.6,1.8-1,2.6c-0.3,0.7,0,1.6,0.8,1.9c0.2,0.1,0.4,0.1,0.6,0.1
	c0.6,0,1.1-0.3,1.3-0.9c0.4-0.9,0.8-1.9,1.1-2.8C73.5,53.5,73.1,52.7,72.4,52.4C72.4,52.4,72.4,52.4,72.4,52.4z M69.2,22.4
	c-0.6-0.8-1.2-1.7-1.8-2.4c-0.5-0.6-1.5-0.7-2.1-0.2c-0.6,0.5-0.7,1.4-0.2,2c0.6,0.7,1.1,1.4,1.7,2.2c0.5,0.7,1.4,0.8,2,0.4
	C69.5,24,69.6,23,69.2,22.4L69.2,22.4z M46.1,72.5c-0.9,0-1.8-0.1-2.7-0.2c-0.8-0.1-1.5,0.5-1.6,1.3s0.5,1.5,1.3,1.6l0,0
	c1,0.1,2,0.2,3.1,0.2h0.1c0.8,0,1.4-0.6,1.4-1.4c0,0,0,0,0,0C47.6,73.2,47,72.5,46.1,72.5z M21,50.8c-0.2-0.8-1-1.3-1.8-1.1
	s-1.3,1-1.1,1.8c0.2,1,0.5,1.9,0.9,2.9c0.2,0.6,0.8,1,1.4,1c0.2,0,0.3,0,0.5-0.1c0.8-0.3,1.2-1.1,0.9-1.9
	C21.5,52.6,21.3,51.7,21,50.8z M35.6,70c-0.8-0.4-1.6-0.9-2.4-1.4c-0.7-0.4-1.6-0.3-2,0.4c-0.4,0.7-0.3,1.6,0.4,2
	c0.9,0.6,1.7,1.1,2.7,1.5c0.2,0.1,0.4,0.2,0.7,0.2c0.8,0,1.5-0.7,1.5-1.5C36.4,70.7,36.1,70.2,35.6,70z M22.1,27
	c-0.7-0.3-1.6,0-1.9,0.7c0,0,0,0,0,0c-0.4,0.9-0.8,1.9-1.1,2.8c-0.3,0.8,0.2,1.6,0.9,1.9c0.2,0.1,0.3,0.1,0.5,0.1
	c0.6,0,1.2-0.4,1.4-1c0.3-0.9,0.6-1.8,1-2.6C23.1,28.2,22.8,27.4,22.1,27z M26.9,17.8c-0.7,0.7-1.4,1.5-2,2.3
	c-0.5,0.6-0.4,1.5,0.2,2.1c0.3,0.2,0.6,0.3,0.9,0.3c0.4,0,0.9-0.2,1.1-0.5c0.6-0.7,1.2-1.4,1.8-2.1c0.6-0.6,0.6-1.5,0-2.1
	C28.4,17.2,27.5,17.2,26.9,17.8C26.9,17.8,26.9,17.8,26.9,17.8L26.9,17.8z M25.5,60.9c-0.4-0.7-1.3-0.9-2-0.4
	c-0.7,0.4-0.9,1.3-0.4,2c0,0,0,0,0,0.1c0.6,0.8,1.2,1.7,1.8,2.4c0.3,0.3,0.7,0.5,1.1,0.5c0.8,0,1.5-0.7,1.5-1.5
	c0-0.3-0.1-0.7-0.3-0.9C26.6,62.4,26,61.7,25.5,60.9L25.5,60.9z M58,48c-0.7-0.1-1.4,0.5-1.4,1.3c0,0.1,0,0.1,0,0.2
	c0.1,1.3-0.4,2.5-1.3,3.4c-0.8,0.9-2,1.3-3.2,1.3H41.1c1.2-1.8,1.8-4,1.7-6.2l0-7.1h5.7c0.8,0,1.4-0.6,1.4-1.4
	c0-0.8-0.6-1.4-1.4-1.4l0,0l-5.7,0v-6.6c-0.1-1.8,0.4-3.6,1.4-5c0.9-1.1,2.2-1.7,3.5-1.6c1.4-0.1,2.7,0.4,3.7,1.4
	c1,1,1.4,2.4,1.4,3.8c0,0.8,0.7,1.4,1.5,1.4c0.8,0,1.4-0.6,1.4-1.4c0.1-2.2-0.7-4.3-2.2-5.8c-1.5-1.5-3.6-2.3-5.7-2.3
	c-2.2-0.1-4.3,0.9-5.7,2.5c-1.5,2-2.2,4.5-2.1,7l0,6.6h-3.3c-0.8,0-1.5,0.6-1.5,1.4c0,0.8,0.6,1.5,1.5,1.5h3.3V48
	c0.1,1.7-0.3,3.3-1.3,4.7c-0.8,1-2,1.5-3.2,1.5c-0.8,0-1.4,0.6-1.4,1.4c0,0.8,0.6,1.4,1.4,1.4H52c2,0,3.9-0.7,5.3-2.2
	c1.4-1.5,2.2-3.4,2.1-5.4c0.1-0.7-0.5-1.4-1.3-1.5C58.1,48,58,48,58,48L58,48z"/>
</svg>
