<?xml version="1.0" encoding="utf-8"?>
<!-- Generator: Adobe Illustrator 21.1.0, SVG Export Plug-In . SVG Version: 6.00 Build 0)  -->
<svg version="1.1" id="Capa_1" xmlns="http://www.w3.org/2000/svg" xmlns:xlink="http://www.w3.org/1999/xlink" x="0px" y="0px"
	 viewBox="0 0 267 228" width="267px" height="228px" style="enable-background:new 0 0 267 228;" xml:space="preserve">
<path d="M256.5,71.7c0,0.9,0,1.9-0.2,2.8l-16.5,83.6c-0.8,4.2-3.8,7.2-7.2,7.2l-98.8,0.6c0,0,0,0,0,0H34.9c-3.4,0-6.4-3-7.3-7.2
	L11.2,74.8c-0.2-1-0.2-1.9-0.2-2.9c-6.4-2.5-11-10.1-11-19c0-11,7.1-20,15.7-20s15.7,8.9,15.7,20c0,6.2-2.2,11.7-5.7,15.4l20.6,26.4
	c5.2,6.7,12.4,10.5,19.8,10.5c8.7,0,17.1-5.3,22.3-14.1l33.9-57c-2.8-3.6-4.6-8.6-4.6-14.1c0-11,7.1-20,15.7-20s15.7,8.9,15.7,20
	c0,5.3-1.7,10.2-4.4,13.8c0,0,0,0,0,0l33.6,57.1c5.3,8.9,13.6,14.2,22.4,14.2c7.5,0,14.5-3.7,19.8-10.4l20.7-26.3
	c-3.6-3.7-5.9-9.3-5.9-15.5c0-11,7.1-20,15.7-20c8.7,0,15.7,8.9,15.7,20C267,61.6,262.6,68.9,256.5,71.7z M238.2,195.7
	c0-5.2-3.4-9.5-7.5-9.5H37.1c-4.1,0-7.5,4.3-7.5,9.5v22.8c0,5.2,3.4,9.5,7.5,9.5h193.6c4.1,0,7.5-4.3,7.5-9.5V195.7z"/>
</svg>
