<svg xmlns="http://www.w3.org/2000/svg" width="73px" height="73px" viewBox="0 0 73.16 72.906">
  <path id="Delete_icon" class="cls-1" d="M1114.43,892.7A36.464,36.464,0,1,0,1151,929.168,36.515,36.515,0,0,0,1114.43,892.7Zm0,70.649a34.185,34.185,0,1,1,34.28-34.185A34.236,34.236,0,0,1,1114.43,963.353Zm5.71-43.3v-2.279a2.279,2.279,0,0,0-2.28-2.279H1111a2.288,2.288,0,0,0-2.29,2.279v2.279H1103v2.279h2.29v18.232a2.28,2.28,0,0,0,2.28,2.279h13.72a2.28,2.28,0,0,0,2.28-2.279V922.331h2.29v-2.279h-5.72Zm-9.14-2.279h6.86v2.279H1111v-2.279Zm10.29,22.79h-13.72V922.331h13.72v18.232Zm-8-15.953H1111v13.674h2.29V924.61Zm4.57,0h-2.29v13.674h2.29V924.61Z" transform="translate(-1077.84 -892.719)"/>
</svg>
