<?xml version="1.0" encoding="utf-8"?>
<!-- Generator: Adobe Illustrator 21.1.0, SVG Export Plug-In . SVG Version: 6.00 Build 0)  -->
<svg version="1.1" id="Layer_1" xmlns="http://www.w3.org/2000/svg" xmlns:xlink="http://www.w3.org/1999/xlink" x="0px" y="0px"
	 viewBox="0 0 73.2 72.9" height="73px" width="73px" style="enable-background:new 0 0 73.2 72.9;" xml:space="preserve">
<path id="Edit_Icon" d="M36.6,0C16.4,0.1,0.2,16.4,0.2,36.6C0.3,56.7,16.6,73,36.8,72.9
	c20.1-0.1,36.4-16.4,36.4-36.5C73.1,16.3,56.7,0,36.6,0z M36.6,70.7C17.7,70.6,2.4,55.3,2.5,36.4C2.5,17.5,17.9,2.2,36.8,2.3
	c18.8,0.1,34.1,15.3,34.1,34.2C70.8,55.4,55.5,70.7,36.6,70.7L36.6,70.7z M49.2,25.4l-7.8-4.6c-1-0.6-2.4-0.3-3,0.8c0,0,0,0,0,0.1
	L30,36.9l-1.1,2c-0.5,0.7-0.8,1.5-0.8,2.3l-0.6,10.1c0,0,0.5,2.3,2.3,2.3v0c0.3,0,0.7-0.1,1-0.2l8.3-5.7c0.7-0.5,1.2-1.1,1.5-1.9
	l1.1-2l0.6-1L50,28.6C50.6,27.5,50.2,26.1,49.2,25.4L49.2,25.4z M43.1,36.7l-2.8,5l-0.6,1c0,0-0.4,0.7-1.1,2
	c-0.7,1.1-1.7,2.1-2.8,2.8l-4.2,3.4c-0.5,0.3-1.1,0.2-1.6,0c-0.5-0.3-0.8-0.8-0.8-1.4l0.8-5.5c0-1.3,0.3-2.7,0.9-3.9
	c0.7-1.3,2.2-4,2.2-4l2.2-4l1.6-3l7.8,4.6L43.1,36.7z M45.8,31.7L38,27.1l2.3-4.2l7.8,4.6L45.8,31.7z"/>
</svg>
