<svg xmlns="http://www.w3.org/2000/svg" width="128px" height="99px"
viewBox="0 0 128.125 99.18">
  <path
    d="M113.575 35H14.548A14.594 14.594 0 0 0-.014 49.59V84.6a14.586 14.586 0 0 0 14.562 14.58h99.027a14.586 14.586 0 0 0 14.563-14.58V49.59A14.594 14.594 0 0 0 113.575 35zm8.738 49.6a8.757 8.757 0 0 1-8.738 8.75H14.548a8.757 8.757 0 0 1-8.737-8.75V49.59a8.75 8.75 0 0 1 8.737-8.75h99.027a8.751 8.751 0 0 1 8.738 8.75V84.6zm-90.289-2.92H17.462V52.51h14.563a2.92 2.92 0 0 0 0-5.84H14.548a2.919 2.919 0 0 0-2.912 2.92V84.6a2.91 2.91 0 0 0 2.912 2.91h17.476a2.915 2.915 0 0 0 0-5.83zm-5.825-17.5H14.548a2.915 2.915 0 0 0 0 5.83h11.651a2.915 2.915 0 0 0 0-5.83zm43.2 18.8l-23.3-35.01a2.915 2.915 0 1 0-4.846 3.24l23.3 35a2.9 2.9 0 0 0 2.424 1.3 2.818 2.818 0 0 0 1.613-.49 2.913 2.913 0 0 0 .808-4.04zm-.81-35.82a2.915 2.915 0 0 0-4.037.81l-23.3 35.01a2.919 2.919 0 0 0 .81 4.04 2.818 2.818 0 0 0 1.613.49 2.9 2.9 0 0 0 2.423-1.3l23.3-35a2.931 2.931 0 0 0-.81-4.05zm10.037-.49a2.919 2.919 0 0 0-2.913 2.92V84.6a2.913 2.913 0 0 0 5.825 0V49.59a2.918 2.918 0 0 0-2.913-2.92zm34.95 0h-23.3a2.92 2.92 0 0 0 0 5.84h23.3a2.92 2.92 0 0 0-.001-5.84zm-11.65 0a2.919 2.919 0 0 0-2.913 2.92V84.6a2.913 2.913 0 0 0 5.826 0V49.59a2.919 2.919 0 0 0-2.914-2.92zm-75.726-35a2.91 2.91 0 0 0-2.913 2.91v23.34a2.913 2.913 0 1 0 5.825 0V14.58a2.91 2.91 0 0 0-2.913-2.91zm75.726 0a2.91 2.91 0 0 0-2.913 2.91v23.34a2.913 2.913 0 1 0 5.826 0V14.58a2.91 2.91 0 0 0-2.914-2.91zM43.675 0H8.723a2.91 2.91 0 0 0-2.912 2.91A14.594 14.594 0 0 0 20.373 17.5h11.651A14.593 14.593 0 0 0 46.586 2.91 2.909 2.909 0 0 0 43.674 0zm-11.65 11.67h-11.65a8.748 8.748 0 0 1-8.237-5.84h28.124a8.748 8.748 0 0 1-8.238 5.84zM119.401 0h-34.95a2.91 2.91 0 0 0-2.913 2.91A14.594 14.594 0 0 0 96.101 17.5h11.65a14.594 14.594 0 0 0 14.563-14.59A2.91 2.91 0 0 0 119.4 0zm-11.65 11.67h-11.65a8.748 8.748 0 0 1-8.237-5.84h28.124a8.748 8.748 0 0 1-8.238 5.84z"
    fill="red" fill-rule="evenodd"/>
</svg>
