<?xml version="1.0" encoding="UTF-8"?>
<svg width="13px" height="22px" viewBox="0 0 13 22" version="1.1" xmlns="http://www.w3.org/2000/svg" xmlns:xlink="http://www.w3.org/1999/xlink">
    <!-- Generator: Sketch 51.3 (57544) - http://www.bohemiancoding.com/sketch -->
    <title>jingou</title>
    <desc>Created with Sketch.</desc>
    <defs></defs>
    <g id="Page-1" stroke="none" stroke-width="1" fill="none" fill-rule="evenodd">
        <g id="jingou">
            <path d="M12.265,11.071 C12.16,11.202 12.075,11.417 12.051,11.475 C11.907,11.82 11.879,12.238 11.835,12.607 C11.797,12.925 11.813,13.063 11.648,13.441 C11.504,13.773 11.209,14.462 11.121,15.316 C11.02,16.299 11.065,17.2 11.027,17.343 C10.884,17.903 10.719,18.561 10.284,18.97 C9.867,19.36 9.328,19.592 8.821,19.839 C8.44003697,20.0233131 8.06765235,20.2248546 7.705,20.443 C8.95,16.679 10.917,8.466 6.181,6.945 C7.253,5.705 7.756,4.13 7.622,2.249 C7.574,1.803 7.599,1.77 7.497,1.26 C7.427,0.866 7.332,0.461 7.21,0.043 C5.933,0.305 5.692,1.567 4.766,2.168 C3.988,1.959 3.196,2.005 2.62,2.427 C2.247,1.68 1.637,1.002 0.947,0.497 C0.879,0.446 0.741,0.347 0.82,0.514 C0.852,0.582 0.614,0.269 0.552,0.23 C0.416352921,0.147405565 0.277225015,0.0706683505 0.135,0 C0.109866279,0.100984059 0.0895103211,0.203097551 0.074,0.306 C0.0683051962,0.347365688 0.0738312261,0.389501666 0.09,0.428 C0.441,1.147 0.056,0.43 0.055,0.439 L0.045,0.509 C0.036,0.6 0.253,1.096 0.186,1.026 C0.063,0.898 0.01,0.948 0.007,1.028 C-0.037,2.108 0.136,3.441 0.692,3.793 C0.449,3.105 -0.008,1.313 0.474,0.731 C0.857,0.858 2.205,1.205 2.337,3.135 C3.163,2.337 4.218,1.997 5.329,2.892 C5.311,2.002 6.006,0.625 7.134,0.309 C7.949,3.405 6.884,5.839 5.395,7.279 C11.284,7.912 8.457,17.428 7.193,21.204 C8.225,20.385 9.148,20.137 9.899,19.756 C10.915,19.242 11.329,18.36 11.448,17.276 C11.467,17.097 11.386,16.084 11.464,15.18 C11.525,14.472 11.936,13.877 12.048,13.158 C12.181,12.299 12.012,11.757 12.485,11.223 C12.558,11.141 12.541,11.042 12.491,10.998 C12.415,10.932 12.336,10.982 12.265,11.071 Z" id="Shape" fill="#000100"></path>
            <g id="Group" transform="translate(2.000000, 3.000000)" fill="#FFFFFF" fill-rule="nonzero" stroke="#272525" stroke-width="0.5">
                <path d="M0.552,0.849 C0.429383069,0.903141696 0.362334655,1.03658801 0.392082501,1.16728346 C0.421830346,1.29797891 0.540029549,1.38926066 0.674,1.385 C0.774698432,1.38091431 0.865432263,1.3230276 0.911575805,1.2334305 C0.957719347,1.14383339 0.952152624,1.03635079 0.897,0.952 L0.552,0.849 Z" id="Shape"></path>
                <path d="M0.674,1.39 C0.59876657,1.39214988 0.525775723,1.36424254 0.471167114,1.3124488 C0.416558505,1.26065507 0.384830946,1.18924187 0.383,1.114 C0.379054428,0.998503975 0.445485873,0.892134577 0.551,0.845 L0.553,0.845 L0.9,0.948 L0.901,0.95 C0.957434867,1.03570854 0.963243089,1.14519555 0.91619303,1.2363939 C0.869142971,1.32759226 0.776553739,1.38631513 0.674,1.39 Z M0.552,0.854 C0.433005501,0.908351692 0.368513496,1.03877455 0.39755821,1.16632925 C0.426602923,1.29388395 0.541204686,1.38352644 0.672,1.381 C0.771055338,1.37733529 0.860538366,1.32083384 0.90643173,1.23297493 C0.952325094,1.14511601 0.947579879,1.03939416 0.894,0.956 L0.552,0.854 Z" id="Shape"></path>
            </g>
            <g id="Group" transform="translate(4.000000, 3.000000)" fill="#FFFFFF" fill-rule="nonzero" stroke="#272525" stroke-width="0.5">
                <path d="M1.31,0.769 L0.958,0.848 C0.883808091,0.945454166 0.882138138,1.07998249 0.953888085,1.17924829 C1.02563803,1.27851409 1.15390068,1.31912631 1.26970843,1.27924752 C1.38551619,1.23936873 1.46158004,1.12839598 1.457,1.006 C1.45424326,0.906295751 1.39809586,0.815772387 1.31,0.769 Z" id="Shape"></path>
                <path d="M1.188,1.3 C1.0789879,1.30281163 0.97799284,1.24295662 0.928119791,1.14598125 C0.878246743,1.04900588 0.88830435,0.932038069 0.954,0.845 L0.955,0.844 L0.957,0.844 L1.311,0.765 L1.312,0.765 C1.402,0.813 1.458,0.906 1.461,1.007 C1.46396978,1.08214105 1.4368047,1.15535593 1.38554142,1.21037477 C1.33427813,1.26539361 1.26316326,1.29765867 1.188,1.3 Z M0.96,0.852 C0.897411973,0.936666296 0.888446651,1.04956591 0.936887891,1.143049 C0.985329131,1.2365321 1.08273699,1.29431106 1.188,1.292 C1.31282614,1.28809961 1.41947891,1.20086513 1.44805685,1.07929178 C1.47663479,0.957718434 1.42001583,0.832104096 1.31,0.773 L0.96,0.852 Z" id="Shape"></path>
            </g>
            <g id="Group" transform="translate(4.000000, 4.000000)" stroke="#FFFFFF" stroke-width="0.5">
                <path d="M0.825,1.485 C1.504,1.261 2.595,0.793 2.927,1.281 C2.937,1.377 2.84,1.293 2.801,1.328 C2.866,1.433 3.087,1.489 3.101,1.285 C2.892,0.532 1.515,1.082 0.825,1.485 Z" id="Shape" fill="#272525"></path>
                <path d="M0.747,1.52 L0.82,1.477 C1.259,1.222 1.952,0.918 2.464,0.902 C2.819,0.892 3.037,1.02 3.11,1.283 L3.11,1.286 C3.104,1.376 3.056,1.429 2.979,1.431 C2.90500893,1.43058738 2.83590595,1.39398147 2.794,1.333 L2.789,1.326 L2.796,1.321 C2.803,1.314 2.813,1.311 2.827,1.31 C2.84087843,1.31009361 2.85467672,1.31211287 2.868,1.316 C2.88,1.318 2.891,1.32 2.9,1.32 C2.909,1.32 2.913,1.317 2.914,1.315 C2.919,1.31 2.921,1.299 2.92,1.284 C2.818,1.137 2.64,1.068 2.376,1.076 C1.996,1.088 1.523,1.253 1.104,1.398 L0.828,1.493 L0.747,1.52 Z M2.813,1.331 C2.85302146,1.3822402 2.91399496,1.41272695 2.979,1.414 C3.018,1.413 3.084,1.395 3.091,1.286 C3.021,1.033 2.81,0.91 2.464,0.92 C1.985,0.935 1.346,1.204 0.909,1.447 L1.098,1.382 C1.517,1.235 1.992,1.07 2.375,1.059 C2.647,1.05 2.83,1.122 2.935,1.276 L2.936,1.278 L2.937,1.28 C2.939,1.302 2.936,1.317 2.927,1.326 C2.915,1.341 2.89,1.339 2.864,1.333 C2.845,1.329 2.825,1.326 2.813,1.331 Z" id="Shape" fill="#FFFFFF" fill-rule="nonzero"></path>
                <path d="M3.217,1.842 C3.296,1.682 3.108,1.638 2.989,1.612 C3.007,1.669 3.007,1.669 3.104,1.712 C3.102,1.847 2.906,1.803 2.832,1.797 C2.427,1.766 2.063,1.443 1.545,1.415 C1.41030805,1.4144769 1.27562922,1.41214335 1.141,1.408 C1.162,1.481 1.428,1.445 1.493,1.467 C2.099,1.503 2.635,2.152 3.217,1.842 Z" id="Shape" fill="#272525"></path>
                <path d="M2.909,1.934 C2.666,1.942 2.432,1.829 2.185,1.709 C1.963,1.602 1.732,1.49 1.493,1.476 L1.49,1.476 C1.469,1.468 1.421,1.468 1.37,1.467 C1.266,1.466 1.149,1.464 1.133,1.411 L1.13,1.399 L1.142,1.399 C1.202,1.401 1.334,1.404 1.545,1.406 C1.826,1.421 2.059,1.521 2.283,1.617 C2.471,1.698 2.648,1.774 2.833,1.788 L2.869,1.792 C2.9,1.796 2.939,1.801 2.976,1.799 C3.054,1.796 3.091,1.77 3.094,1.716 C3.003,1.676 2.999,1.674 2.979,1.614 L2.974,1.6 L2.99,1.603 C3.073,1.622 3.198,1.65 3.234,1.726 C3.251,1.76 3.247,1.8 3.224,1.846 L3.223,1.849 L3.221,1.85 C3.12507142,1.90219244 3.01816588,1.9309747 2.909,1.934 Z M1.495,1.458 C1.737,1.473 1.97,1.585 2.193,1.693 C2.438,1.811 2.67,1.923 2.908,1.916 C3.01389986,1.91276072 3.1176102,1.88503617 3.211,1.835 C3.23,1.795 3.232,1.761 3.218,1.733 C3.188,1.669 3.08,1.641 3.002,1.623 C3.015,1.662 3.024,1.666 3.107,1.702 L3.112,1.704 L3.112,1.71 C3.112,1.778 3.067,1.813 2.977,1.816 C2.939,1.818 2.898,1.813 2.866,1.81 L2.832,1.806 C2.643,1.792 2.466,1.715 2.276,1.634 C2.052,1.538 1.822,1.439 1.544,1.424 C1.4153135,1.42359298 1.28663698,1.42159283 1.158,1.418 C1.188,1.448 1.292,1.449 1.37,1.45 C1.424,1.45 1.47,1.45 1.495,1.458 Z" id="Shape" fill="#FFFFFF" fill-rule="nonzero"></path>
                <g transform="translate(0.000000, 1.000000)" id="Shape">
                    <path d="M0.991,0.571 C1.385,0.712 1.737,0.822 2.12,1.061 C2.455,1.27 2.797,1.666 3.122,1.712 C3.227,1.727 3.397,1.732 3.46,1.58 C3.448,1.39 3.336,1.326 3.194,1.299 C3.215,1.39 3.336,1.357 3.327,1.486 C2.95,1.585 2.63,1.281 2.33,1.089 C1.936,0.837 1.58,0.589 0.991,0.571 Z" fill="#272525"></path>
                    <path d="M3.228,1.727 C3.19219502,1.72790827 3.15638148,1.72556532 3.121,1.72 C2.907,1.689 2.683,1.508 2.468,1.333 C2.35606024,1.23772118 2.23851663,1.14922954 2.116,1.068 C1.781,0.859 1.467,0.748 1.133,0.63 C1.08441148,0.613734406 1.03607259,0.596732449 0.988,0.579 L0.935,0.56 L0.992,0.562 C1.553,0.579 1.903,0.805 2.274,1.043 L2.335,1.082 C2.388,1.116 2.443,1.154 2.5,1.194 C2.718,1.346 2.943,1.504 3.195,1.496 C3.23682106,1.49476866 3.27839063,1.4890696 3.319,1.479 C3.321,1.417 3.29,1.399 3.255,1.378 C3.225,1.361 3.195,1.344 3.185,1.3 L3.182,1.287 L3.196,1.289 C3.315,1.312 3.455,1.366 3.468,1.579 L3.468,1.583 C3.43,1.675 3.349,1.723 3.228,1.727 Z M1.051,0.583 L1.139,0.614 C1.474,0.732 1.789,0.844 2.126,1.054 C2.243,1.127 2.363,1.225 2.479,1.32 C2.693,1.494 2.914,1.674 3.123,1.704 C3.15751709,1.70797524 3.19226075,1.70964561 3.227,1.709 C3.34,1.705 3.415,1.661 3.451,1.577 C3.437,1.387 3.323,1.333 3.207,1.308 C3.218,1.335 3.24,1.348 3.264,1.362 C3.301,1.383 3.342,1.407 3.336,1.486 L3.336,1.493 L3.329,1.495 C3.28551612,1.50628424 3.24090411,1.51265738 3.196,1.514 C2.937,1.522 2.71,1.362 2.489,1.208 C2.432,1.169 2.38,1.131 2.325,1.097 L2.264,1.058 C1.909,0.829 1.572,0.613 1.051,0.583 Z" fill="#FFFFFF" fill-rule="nonzero"></path>
                </g>
            </g>
            <path d="M4.815,6.378 C4.455,6.887 3.889,6.331 3.315,6.563 C3.804,6.193 4.306,6.651 4.815,6.378 Z M3.687,4.332 C3.456,3.846 2.685,3.434 1.852,3.806 C1.71176751,3.79523637 1.57243974,3.77485509 1.435,3.745 C1.474,3.849 1.649,3.868 1.762,3.985 C1.955,4.188 2.225,4.374 2.456,4.413 C2.236,4.322 1.888,4.085 2.086,3.851 C2.183,3.862 2.508,3.804 2.574,3.864 C2.575,3.888 2.456,3.93 2.459,3.951 C2.483,4.13 2.526,4.224 2.59,4.368 C2.8,4.368 2.793,4.239 2.895,4.174 C2.961,4.043 2.631,4.004 2.747,3.945 C3.039,3.92 3.436,4.132 3.687,4.332 Z M6.212,3.562 C6.157,3.673 5.772,3.709 5.698,3.609 C5.615,3.662 5.383,3.715 5.265,3.796 C5.222,3.827 5.268,3.836 5.233,3.875 C5.189,3.924 5.429,4.031 5.413,4.085 C5.403,4.119 5.324,4.107 5.274,4.151 C5.21734529,4.2029578 5.14682441,4.23734976 5.071,4.25 C5.022,4.111 4.933,4.045 4.958,3.848 C4.77,3.844 4.462,4.139 4.319,4.281 C4.436,3.967 4.81,3.476 5.624,3.422 C6.037,3.439 5.883,3.624 6.212,3.562 Z M0.168,5.297 C0.22,5.5 0.458,5.418 0.513,5.306 C0.464,5.275 0.369,5.37 0.361,5.273 C0.645,4.746 1.963,5.086 2.768,5.23 C1.916,4.909 0.263,4.521 0.168,5.297 Z M0.7,5.998 C0.611,5.889 0.781,5.784 0.885,5.745 C0.942,5.712 0.942,5.798 0.79,5.856 C0.804,5.992 0.968,5.934 1.036,5.938 C1.39,5.955 1.81,5.477 2.151,5.398 C2.373,5.347 2.704,5.34 2.771,5.344 C2.518,5.397 2.282,5.415 2.225,5.444 C1.68,5.543 1.086,6.477 0.7,5.998 Z M3.055,5.455 C2.667,5.609 2.318,5.732 1.943,5.983 C1.616,6.203 1.289,6.61 0.965,6.668 C0.86,6.686 0.69,6.697 0.623,6.547 C0.628,6.357 0.738,6.289 0.879,6.257 C0.861,6.35 0.739,6.321 0.752,6.449 C1.133,6.536 1.442,6.22 1.735,6.018 C2.12,5.754 2.468,5.493 3.055,5.455 Z M4.12,5.546 C4.148,5.352 4.304,5.259 4.39,5.111 C4.286,4.992 3.802,5.004 3.651,5.14 C3.8,5.25 4.024,5.276 3.989,5.589 C3.712,5.769 3.254,6.127 2.915,5.847 C2.89,5.817 2.806,5.773 2.57,5.712 L2.569,5.712 C2.52885685,5.72900623 2.49007655,5.74906501 2.453,5.772 L2.447,5.78 C2.55011062,5.74974025 2.66095531,5.76086059 2.756,5.811 C2.756,5.811 2.802,5.826 2.87,5.903 C3.336,6.406 3.777,5.644 4.451,5.9 C4.885,6.065 5.204,5.957 5.32,5.897 C5.472,5.817 5.403,5.74 5.351,5.74 C5.062,5.787 4.205,5.727 4.12,5.546 Z M3.041,5.65 C3.042,5.676 3.024,5.697 3.002,5.697 C2.979,5.697 2.962,5.677 2.962,5.651 C2.961,5.626 2.978,5.605 3,5.604 C3.022,5.604 3.041,5.625 3.041,5.65 Z M3.253,5.333 C3.231,5.333 3.212,5.353 3.212,5.377 C3.213,5.401 3.231,5.42 3.255,5.419 C3.278,5.419 3.297,5.399 3.296,5.375 C3.29545667,5.35164318 3.27636314,5.33299368 3.253,5.333 Z M3.705,5.379 C3.683,5.379 3.666,5.395 3.666,5.412 C3.666,5.43 3.685,5.445 3.705,5.444 C3.727,5.444 3.744,5.429 3.744,5.411 C3.744,5.393 3.726,5.379 3.705,5.379 Z M3.258,5.587 C3.23669333,5.58806665 3.21997332,5.60566666 3.22,5.627 C3.22,5.649 3.238,5.667 3.259,5.667 C3.281,5.667 3.297,5.648 3.297,5.626 C3.29647341,5.60468282 3.27931718,5.58752659 3.258,5.587 Z M3.653,5.631 C3.635,5.631 3.62,5.645 3.62,5.66 C3.62,5.676 3.636,5.688 3.654,5.688 C3.672,5.688 3.686,5.674 3.686,5.659 C3.686,5.644 3.672,5.631 3.653,5.631 Z M4.66,5.255 C4.642,5.255 4.628,5.268 4.628,5.282 C4.628,5.298 4.643,5.309 4.66,5.309 C4.679,5.308 4.692,5.296 4.692,5.281 C4.691,5.267 4.677,5.254 4.66,5.255 Z M4.665,5.428 C4.64,5.428 4.619,5.446 4.62,5.468 C4.62,5.49 4.641,5.507 4.667,5.507 C4.691,5.507 4.713,5.488 4.712,5.467 C4.712,5.445 4.69,5.428 4.665,5.428 Z M3.511,5.436 C3.486,5.437 3.465,5.454 3.465,5.476 C3.466,5.498 3.487,5.516 3.513,5.515 C3.537,5.514 3.559,5.496 3.558,5.474 C3.558,5.453 3.538,5.436 3.511,5.436 Z M5.04,5.441 C5.02,5.441 5.005,5.459 5.006,5.482 C5.006,5.505 5.023,5.522 5.041,5.522 C5.06,5.522 5.076,5.503 5.076,5.481 C5.076,5.458 5.059,5.44 5.04,5.441 Z M4.327,5.513 C4.31,5.513 4.295,5.525 4.295,5.539 C4.296,5.554 4.31,5.565 4.328,5.565 C4.346,5.564 4.36,5.553 4.36,5.538 C4.36,5.524 4.344,5.512 4.327,5.513 Z M2.954,5.244 C2.929,5.244 2.91,5.262 2.911,5.284 C2.911,5.307 2.932,5.324 2.956,5.324 C2.979,5.323 3,5.305 2.999,5.283 C2.999,5.261 2.978,5.243 2.954,5.244 Z M3.241,5.808 C3.228,5.808 3.219,5.816 3.219,5.826 C3.219,5.836 3.229,5.844 3.241,5.844 C3.253,5.844 3.261,5.836 3.261,5.826 C3.26103185,5.82085848 3.25886344,5.81594877 3.25504171,5.81250921 C3.25121998,5.80906965 3.24610977,5.80742861 3.241,5.808 Z M4.907,5.601 C4.89,5.601 4.877,5.614 4.878,5.628 C4.878,5.644 4.892,5.655 4.908,5.655 C4.924,5.654 4.936,5.642 4.936,5.627 C4.93574828,5.61965392 4.93251243,5.61272799 4.92703955,5.60782127 C4.92156667,5.60291455 4.91432988,5.60045121 4.907,5.601 Z M4.698,5.603 C4.687,5.603 4.679,5.612 4.679,5.623 C4.679,5.634 4.688,5.643 4.698,5.642 C4.70904569,5.642 4.718,5.63304569 4.718,5.622 C4.717,5.611 4.708,5.602 4.698,5.603 Z M4.438,5.312 C4.42348067,5.31306691 4.41242165,5.32545301 4.413,5.34 C4.413,5.355 4.425,5.367 4.439,5.367 C4.44599194,5.36702241 4.45267375,5.36411576 4.45742416,5.35898533 C4.46217456,5.35385489 4.46455939,5.34696956 4.464,5.34 C4.46455823,5.33276491 4.46206743,5.32562574 4.45712968,5.32030816 C4.45219192,5.31499057 4.44525656,5.3119785 4.438,5.312 Z M4.893,5.203 C4.88672274,5.20299406 4.88071579,5.20555406 4.87637252,5.21008617 C4.87202925,5.21461828 4.86972707,5.22072867 4.87,5.227 C4.87,5.24 4.881,5.25 4.893,5.25 C4.89927726,5.25000594 4.90528421,5.24744594 4.90962748,5.24291383 C4.91397075,5.23838172 4.91627293,5.23227133 4.916,5.226 C4.917,5.213 4.906,5.203 4.893,5.203 Z" id="Shape" fill="#272525"></path>
            <g id="Group" transform="translate(0.000000, 7.000000)" fill="#59595B">
                <path d="M6.978,2.386 C6.81,1.628 6.216,1.145 5.772,0.646 C5.73267552,0.620372288 5.69078152,0.598922557 5.647,0.582 C5.586218,0.564774061 5.52314468,0.55701638 5.46,0.559 C5.42176763,0.571054106 5.38406671,0.5847332 5.347,0.6 C5.634,0.623 5.843,0.708 5.699,0.882 C5.995,1.002 6.225,1.169 6.393,1.382 C6.322,1.389 6.232,1.226 6.179,1.345 C6.544,1.491 6.662,1.818 6.819,2.116 C6.756,2.105 6.685,1.912 6.605,2.04 C6.679,2.27 6.88,2.612 6.762,2.853 C6.766,2.786 6.721,2.754 6.656,2.737 C6.843,3.186 6.827,3.882 6.544,4.365 C6.539,4.206 6.727,3.932 6.439,3.901 C6.373,4.164 6.361,4.465 6.168,4.638 C6.184,4.481 6.26,4.368 6.275,4.211 C5.904,4.538 5.754,5.025 5.308,5.3 C5.324,5.254 5.524,5.153 5.362,5.106 C5.102,5.462 4.774,5.77 4.448,6.079 C4.449,5.95 4.623,5.946 4.61,5.808 C4.376,6.014 4.002,6.326 4.018,6.586 C4.662,5.871 5.542,5.328 6.114,4.561 C6.091,4.648 5.99,4.772 6.167,4.793 C6.331,4.626 6.39,4.384 6.491,4.171 L6.489,4.442 C7.215,3.946 6.835,2.884 6.819,2.194 C6.824,2.292 6.917,2.329 6.978,2.386 Z M3.479,6.842 C3.211,6.517 2.99,6.159 2.634,5.899 C2.579,5.976 2.803,6.036 2.633,6.064 C1.985,5.819 1.331,3.43 1.281,4.793 C1.068,4.469 1.128,3.946 1.003,3.558 C0.898,3.687 0.886,3.887 0.776,4.013 C0.655,3.319 1.069,2.793 1.178,2.404 C1.029,2.572 0.818,2.913 0.611,2.901 C0.761,2.556 1.234,2.224 1.293,1.949 C1.218,2.035 0.999,2.23 0.896,2.158 C1.329,1.7 2.044,1.448 2.258,0.832 C2.16,0.816 2.112,0.894 2.088,0.833 C2.13573181,0.770402183 2.19645774,0.718887486 2.266,0.682 C2.19634255,0.673475675 2.12849037,0.65389644 2.065,0.624 C2.008,0.792 1.952,0.925 2.087,0.998 C1.791,1.554 1.014,1.761 0.727,2.324 C0.904,2.391 0.958,2.169 1.009,2.281 C0.743,2.488 0.6,2.783 0.497,3.108 C0.735,3.142 0.749,2.798 0.894,2.9 C0.749,3.261 0.438,3.883 0.777,4.219 C0.878,4.1 0.878,3.908 1.004,3.806 C1.043,4.371 0.944,4.801 1.45,5.04 C1.532,4.855 1.3,4.688 1.453,4.587 C1.833,5.308 2.333,5.942 2.972,6.475 C3.006,6.401 2.807,6.304 2.973,6.269 C3.048,6.62 3.353,6.846 3.591,7.172 C3.601,7.124 3.582,7.055 3.649,7.048 C3.699,7.121 3.774,7.175 3.874,7.212 C3.704,7.123 3.614,6.578 3.479,6.842 Z" id="Shape"></path>
            </g>
            <path d="M11.63,7.624 C11.7326936,7.62146707 11.8344073,7.64449013 11.926,7.691 C12.0220084,7.73812281 12.1022601,7.81212121 12.157,7.904 C12.268085,8.08505961 12.276801,8.31091794 12.18,8.5 C12.0236932,8.78947132 11.6644726,8.90061631 11.372,8.75 C11.2312013,8.67624095 11.1256985,8.54929609 11.0789408,8.3973804 C11.032183,8.24546472 11.0480446,8.08116543 11.123,7.941 C11.1708204,7.84527811 11.2460008,7.76592101 11.339,7.713 C11.4265879,7.65848379 11.526902,7.62780352 11.63,7.624 Z M11.633,7.723 C11.5471509,7.72651698 11.4635746,7.75162426 11.39,7.796 C11.2374796,7.89089969 11.146562,8.05942071 11.151,8.239 C11.1618458,8.51362327 11.3923103,8.72800888 11.667,8.719 C11.8454238,8.71153831 12.00664,8.61039796 12.091,8.453 C12.1306918,8.37577527 12.1502947,8.28979764 12.148,8.203 C12.1445503,8.11560491 12.1187264,8.03055803 12.073,7.956 C12.0267529,7.87964279 11.9598415,7.81793183 11.88,7.778 C11.80358,7.73924829 11.7186424,7.72033506 11.633,7.723 Z M11.4,8.561 L11.377,7.918 L11.598,7.91 C11.6529568,7.90522499 11.7083236,7.90927623 11.762,7.922 C11.8282448,7.94479577 11.8743573,8.00509678 11.879,8.075 C11.8801495,8.12118731 11.8632954,8.166012 11.832,8.2 C11.7979609,8.23693152 11.7511011,8.25946715 11.701,8.263 C11.725,8.271 11.742,8.283 11.757,8.295 C11.7944261,8.33285845 11.8279298,8.37440293 11.857,8.419 L11.94,8.542 L11.813,8.547 L11.752,8.447 C11.7232076,8.39236253 11.6849478,8.34326805 11.639,8.302 C11.6139415,8.28638075 11.5843411,8.27968542 11.555,8.283 L11.493,8.285 L11.503,8.558 L11.4,8.561 Z M11.491,8.195 L11.617,8.19 C11.678,8.188 11.719,8.178 11.739,8.159 C11.7597051,8.14058275 11.7707716,8.11365422 11.769,8.086 C11.7682278,8.06805125 11.7623283,8.0506997 11.752,8.036 C11.7405855,8.02102358 11.7248937,8.00986495 11.707,8.004 C11.688,7.997 11.652,7.995 11.603,7.997 L11.485,8.001 L11.491,8.195 Z" id="Shape" fill="#000100" fill-rule="nonzero"></path>
        </g>
    </g>
</svg>