<svg width="24px" height="23px" viewBox="0 0 24 23" version="1.1" xmlns="http://www.w3.org/2000/svg" xmlns:xlink="http://www.w3.org/1999/xlink">
    <g id="Page-1" stroke="none" stroke-width="1" fill="none" fill-rule="evenodd">
        <g id="map1" fill-rule="nonzero">
            <g id="Group">
                <path d="M23.9,22.5 C23.9,22.5 23.9,22.4 24,22.4 C24,22.4 24,22.3 24,22.3 C24,22.3 24,22.3 24,22.2 C24,22.2 24,22.2 24,22.1 C24,22.1 24,22.1 24,22 L22.2,12.5 C22.2,12.5 22.2,12.5 22.2,12.4 C22.2,12.4 22.2,12.3 22.1,12.3 C22.1,12.3 22,12.2 22,12.2 C22,12.2 21.9,12.1 21.9,12.1 C21.9,12.1 21.8,12 21.8,12 C21.8,12 21.7,12 21.7,12 C21.6,12 21.6,12 21.5,12 C21.5,12 21.5,12 21.4,12 L17.3,12 L17.6,11.6 C17.6,11.6 17.6,11.6 17.6,11.6 C18.3,10.6 19.1,9.1 19.1,7.2 C19.1,3.2 16,0 12,0 C12,0 12,0 12,0 C12,0 12,0 12,0 C8.1,0 4.9,3.2 4.9,7.1 C4.9,9 5.7,10.5 6.4,11.4 C6.4,11.4 6.4,11.4 6.4,11.4 L6.7,11.8 L2.6,11.8 C2.6,11.8 2.5,11.8 2.5,11.8 C2.4,11.8 2.4,11.8 2.3,11.8 C2.3,11.8 2.2,11.8 2.2,11.8 C2.2,11.8 2.1,11.9 2.1,11.9 C2.1,11.9 2,12 2,12 C2,12 1.9,12.1 1.9,12.1 C1.9,12.1 1.9,12.2 1.8,12.2 C1.8,12.2 1.8,12.2 1.8,12.3 L0,22 C0,22 0,22 0,22.1 C0,22.1 0,22.1 0,22.2 C0,22.2 0,22.3 0,22.3 C0,22.4 0,22.4 0,22.4 C0,22.4 0,22.5 0.1,22.5 C0.1,22.5 0.1,22.6 0.2,22.6 C0.2,22.6 0.3,22.7 0.3,22.7 C0.3,22.7 0.4,22.8 0.4,22.8 C0.4,22.8 0.5,22.8 0.5,22.9 C0.5,22.9 0.5,22.9 0.6,22.9 C0.6,22.9 0.7,22.9 0.7,22.9 C0.7,22.9 0.7,22.9 0.7,22.9 L23.2,22.9 C23.2,22.9 23.2,22.9 23.2,22.9 C23.2,22.9 23.3,22.9 23.3,22.9 C23.3,22.9 23.3,22.9 23.4,22.9 C23.4,22.9 23.5,22.9 23.5,22.8 C23.5,22.8 23.6,22.8 23.6,22.7 C23.6,22.7 23.7,22.6 23.7,22.6 C23.9,22.6 23.9,22.5 23.9,22.5 Z M6.4,7.1 C6.4,4 8.9,1.5 12,1.5 C15.1,1.5 17.6,4 17.6,7.1 C17.6,8.6 16.9,9.8 16.4,10.6 C16.4,10.6 16.4,10.6 16.4,10.6 L12,16.6 L7.6,10.6 C7.6,10.6 7.6,10.6 7.6,10.6 C7.1,9.9 6.4,8.6 6.4,7.1 Z M11.4,18.3 C11.5,18.5 11.8,18.6 12,18.6 C12.2,18.6 12.5,18.5 12.6,18.3 L16.2,13.4 L20.8,13.4 L22.3,21.4 L1.7,21.4 L3.2,13.4 L7.8,13.4 L11.4,18.3 Z" id="Shape"></path>
                <path d="M12,10.3 C13.7,10.3 15.2,8.9 15.2,7.1 C15.2,5.3 13.8,4 12,4 C10.3,4 8.8,5.4 8.8,7.2 C8.8,9 10.3,10.3 12,10.3 Z M12,5 C13.2,5 14.2,6 14.2,7.2 C14.2,8.4 13.2,9.4 12,9.4 C10.8,9.4 9.8,8.4 9.8,7.2 C9.8,6 10.8,5 12,5 Z" id="Shape"></path>
            </g>
            <polygon id="Shape" points="1.9 17.7 1.9 16.7 22.3 16.7 22.3 17.7"></polygon>
            <polygon id="Shape" points="7.40411107 12.7360143 8.39588893 12.8639857 7.19588893 22.1639857 6.20411107 22.0360143"></polygon>
            <polygon id="Shape" points="15.3019637 13.0442699 16.2980363 12.9557301 17.0980363 21.9557301 16.1019637 22.0442699"></polygon>
        </g>
    </g>
</svg>
