<?xml version="1.0" encoding="utf-8"?>
<!-- Generator: Adobe Illustrator 21.1.0, SVG Export Plug-In . SVG Version: 6.00 Build 0)  -->
<svg version="1.1" id="Layer_1" xmlns="http://www.w3.org/2000/svg" xmlns:xlink="http://www.w3.org/1999/xlink" x="0px" y="0px"
	 viewBox="0 0 68.6 91.6" width="69px" height="92px" style="enable-background:new 0 0 68.6 91.6;" xml:space="preserve">
<path id="Map" d="M68.4,88.4L56.4,62.8c-0.2-0.5-0.6-0.9-1.2-1.1l-6-2.7l10.4-17.4c0,0,0-0.1,0.1-0.1
	c7.2-14,1.6-31.1-12.4-38.3C33.3-4,16.1,1.5,9,15.5c-2,4-3.1,8.3-3.1,12.8c0,4.6,1,9.1,3.1,13.1c0,0,0,0.1,0.1,0.1L19.4,59l-6,2.7
	c-0.5,0.2-0.9,0.6-1.1,1.1L0.2,88.4c-0.5,1.1,0,2.5,1.1,3c0.6,0.3,1.3,0.3,1.9,0l15.1-6.7l15.1,6.7c0.6,0.3,1.3,0.3,1.8,0l15.1-6.7
	l15.1,6.7c0.3,0.1,0.6,0.2,0.9,0.2c1.2,0,2.3-1,2.3-2.2C68.6,89,68.6,88.7,68.4,88.4z M13,39.3c-1.7-3.4-2.6-7.2-2.6-11
	C10.5,15.3,21,4.8,34,4.5c13.2-0.2,24.1,10.4,24.3,23.7c0,3.9-0.8,7.7-2.6,11.1L36.3,71.9c-0.6,1.1-2,1.4-3.1,0.8
	c-0.3-0.2-0.6-0.5-0.8-0.8L13,39.3z M51.3,80.1c-0.6-0.3-1.3-0.3-1.8,0l-15.1,6.7l-15.1-6.7c-0.6-0.3-1.3-0.3-1.8,0L6.9,84.8
	L16,65.5l5.8-2.6l6.7,11.3c1.9,3.2,6.1,4.3,9.3,2.4c1-0.6,1.8-1.4,2.4-2.4l6.7-11.3l5.8,2.6l9.1,19.3L51.3,80.1z M34.3,18.2
	c-5.7,0-10.3,4.6-10.3,10.3s4.6,10.3,10.3,10.3c5.7,0,10.3-4.6,10.3-10.3c0,0,0,0,0,0C44.6,22.8,40,18.2,34.3,18.2z M34.3,34.3
	c-3.2,0-5.8-2.6-5.8-5.8c0-3.2,2.6-5.8,5.8-5.8c3.2,0,5.8,2.6,5.8,5.8c0,0,0,0,0,0C40.1,31.7,37.5,34.3,34.3,34.3z"/>
</svg>
