<svg xmlns="http://www.w3.org/2000/svg" width="85px" height="136px" viewBox="0 0 85.312 136.5">
  <path
    d="M56.756 45.509a2.433 2.433 0 0 0-2.432-2.434H17.997a2.434 2.434 0 0 0 0 4.868h36.327a2.433 2.433 0 0 0 2.432-2.434zm-5.189 10.385a2.433 2.433 0 0 0-2.433-2.434H23.187a2.434 2.434 0 0 0 0 4.868h25.947a2.433 2.433 0 0 0 2.433-2.434zm.162-18.336a7.627 7.627 0 0 0 0-15.253H20.592a7.627 7.627 0 0 0 0 15.253h31.137zm-33.894-7.626a2.761 2.761 0 0 1 2.757-2.759h31.137a2.759 2.759 0 0 1 0 5.517H20.592a2.761 2.761 0 0 1-2.757-2.758zm62.184 91.677a25.734 25.734 0 0 0-7.694-16.385V5.038A5.035 5.035 0 0 0 67.298.007H5.023A5.035 5.035 0 0 0-.004 5.038v126.424a5.034 5.034 0 0 0 5.027 5.03h72.654a7.626 7.626 0 0 0 2.342-14.883zm-4.921-.37H33.55a20.914 20.914 0 0 1 41.548 0zm-51.231 10.385H5.023a.163.163 0 0 1-.162-.162V5.038a.163.163 0 0 1 .162-.163h62.275a.163.163 0 0 1 .162.163v96.446a25.579 25.579 0 0 0-10.7-3.493v-5.636h2.757a2.434 2.434 0 0 0 0-4.867H49.134a2.434 2.434 0 0 0 0 4.867h2.757v5.636a25.829 25.829 0 0 0-23.263 23.618 7.622 7.622 0 0 0-4.761 10.015zm53.81 0H30.971a2.759 2.759 0 0 1 0-5.517h46.706a2.759 2.759 0 0 1 0 5.517z"
    fill="#ff6c00" fill-rule="evenodd"/>
</svg>
