<?xml version="1.0" encoding="utf-8"?>
<!-- Generator: Adobe Illustrator 21.1.0, SVG Export Plug-In . SVG Version: 6.00 Build 0)  -->
<svg version="1.1" id="Layer_1" xmlns="http://www.w3.org/2000/svg" xmlns:xlink="http://www.w3.org/1999/xlink" x="0px" y="0px"
	 viewBox="0 0 130 90" width="130px" height="90px" style="enable-background:new 0 0 130 90;" xml:space="preserve">
<path id="Delivery" d="M114.4,58.7c-1.7,0-3.4,0.3-5,0.8l-2.1-4.3c5-1.9,10.4-1.7,15.3,0.4
	c1.1,0.5,2.3,0,2.8-1.1s0-2.3-1.1-2.8c-6-2.6-12.8-2.7-18.9-0.3l-7.8-15.7c0.4,0.1,0.8,0.1,1.1,0.1h4.5c1.2,0,2.1-1,2.1-2.1v-9
	c0-1.2-0.9-2.1-2.1-2.1h-4.5c-2.5,0-4.8,1.4-5.9,3.6l-2.2-4.5c-1.1-2.2-3.4-3.7-5.9-3.7h-4c-1.2,0-2.1,1-2.1,2.1
	c0,1.2,0.9,2.1,2.1,2.1h4c0.9,0,1.7,0.5,2.1,1.3l5.5,11l-1,0.5c-2.2,1.1-3.7,3.4-3.6,5.9v22.2H69.5c-3.8,0-6.9-3.1-6.9-6.9v-9.2h0.1
	c3.7,0,6.6-3.1,6.5-6.7c0-3.6-3-6.5-6.5-6.5h-18c-1.7,0-3.4,0.7-4.6,1.9V4.4C40.2,2,38.2,0,35.8,0H4.4C1.9,0,0,2,0,4.4V36
	c0,2.4,1.9,4.4,4.4,4.4h4.7c-0.7,3,1.1,5.9,4.1,6.6c0.4,0.1,0.8,0.1,1.3,0.1h11.3c-1.3,0.8-2.5,1.8-3.7,2.8
	c-3.8,3.3-6.6,7.7-7.9,12.5c-0.4,1.8,0,3.6,1.1,5c1.1,1.4,2.8,2.2,4.5,2.2h0h1.1c-2.6,8.3,2.1,17,10.3,19.6c1.5,0.5,3,0.7,4.6,0.7
	c7.8,0,14.4-5.8,15.4-13.5H92c1.2,0,2.1-1,2.1-2.1c0-1.4,0.1-2.7,0.4-4.1c1.1-5.4,4.4-10.2,9-13.1l2.1,4.3c-7.1,4.9-8.9,14.6-4,21.6
	s14.6,8.9,21.6,4c7.1-4.9,8.9-14.6,4-21.6C124.4,61.2,119.5,58.7,114.4,58.7z M44.8,38.1h18c1.3,0,2.4,1.1,2.4,2.4
	c0,1.3-1.1,2.4-2.4,2.4h-18c-1.3-0.1-2.4-1.2-2.3-2.5C42.5,39.1,43.5,38.1,44.8,38.1L44.8,38.1z M4.2,4.4c0-0.1,0.1-0.1,0.1-0.1
	h31.4c0.1,0,0.1,0.1,0.1,0.1c0,0,0,0,0,0V9H4.2V4.4z M4.4,36.1c-0.1,0-0.1-0.1-0.1-0.1V13.3h31.7V36c0,0.1-0.1,0.1-0.1,0.1
	c0,0,0,0,0,0L4.4,36.1L4.4,36.1z M14.4,42.9c-0.7,0-1.3-0.6-1.3-1.3c0-0.3,0.1-0.7,0.4-0.9c0.2-0.2,0.4-0.3,0.6-0.3l24.1,0
	c0,0,0,0.1,0,0.1c0,0.8,0.2,1.6,0.4,2.4L14.4,42.9L14.4,42.9z M19.8,65.4L19.8,65.4c-0.5,0-0.9-0.2-1.2-0.6
	c-0.3-0.4-0.4-0.9-0.3-1.4c1.6-6.6,9.6-16.3,22-16.3c9.6,0,13.2,9.3,13.2,15.1c0,1.6-0.9,3.2-2.5,3.2L19.8,65.4z M38.2,74.3
	c0,1.3-1.1,2.4-2.4,2.4c-1.3,0-2.4-1.1-2.4-2.4c0-1.3,1.1-2.4,2.4-2.4C37.1,71.9,38.2,73,38.2,74.3L38.2,74.3z M35.8,85.8
	c-6.3,0-11.4-5.2-11.4-11.5c0-1.6,0.3-3.2,1-4.6l5.7,0c-2.6,2.6-2.6,6.8,0,9.3s6.8,2.6,9.3,0c2.6-2.6,2.6-6.8,0-9.3c0,0,0,0,0,0
	l5.7,0c2.6,5.7,0.1,12.5-5.7,15.1C39,85.4,37.4,85.8,35.8,85.8z M90.3,69.4c-0.2,0.9-0.3,1.9-0.4,2.8H51.2c-0.1-0.9-0.3-1.8-0.6-2.6
	H51c3.8,0,6.7-3.2,6.7-7.4c0-4.6-1.5-9-4.2-12.7c-0.6-0.8-1.3-1.6-2.1-2.4h7v9.2c0,6.1,5,11.1,11.1,11.1h20.2c0.4,0,0.9-0.1,1.2-0.4
	C90.7,67.8,90.5,68.6,90.3,69.4L90.3,69.4z M98.7,26.8h2.4v4.8h-2.4c-1.3,0-2.4-1.1-2.4-2.4C96.3,27.9,97.4,26.8,98.7,26.8
	L98.7,26.8z M91.8,64.7V41c0-0.9,0.5-1.7,1.3-2.1l1-0.5l7.4,14.9C97.2,56,93.8,60,91.8,64.7L91.8,64.7z M114.4,85.8
	c-6.3,0-11.5-5.1-11.5-11.4c0-6.3,5.1-11.5,11.4-11.5c6.3,0,11.5,5.1,11.5,11.4c0,0,0,0,0,0.1C125.8,80.6,120.7,85.7,114.4,85.8
	L114.4,85.8z M114.4,67.7c-3.7,0-6.6,2.9-6.7,6.6c0,3.7,2.9,6.6,6.6,6.7c3.7,0,6.6-2.9,6.7-6.6c0,0,0,0,0,0
	C121,70.7,118.1,67.7,114.4,67.7L114.4,67.7z M114.4,76.7c-1.3,0-2.4-1.1-2.4-2.4c0-1.3,1.1-2.4,2.4-2.4c1.3,0,2.4,1.1,2.4,2.4
	c0,0,0,0,0,0C116.8,75.7,115.7,76.7,114.4,76.7L114.4,76.7z"/>
</svg>
