<svg xmlns="http://www.w3.org/2000/svg" width="164px" height="125px"
viewBox="0 0 164.407 125.97">
  <path
    d="M129.287 101.44a45.561 45.561 0 0 1-7.677-25.36V50.37a39.422 39.422 0 0 0-34.8-39.14V1.51h-9.457v9.76a39.745 39.745 0 0 0-34.555 39.48v25.33a45.561 45.561 0 0 1-7.677 25.36L26.081 115h42.75a14.182 14.182 0 0 0 26.746 0h42.751zm-85.556 4.1a54.962 54.962 0 0 0 8.523-29.46V50.75a30.188 30.188 0 0 1 29.843-30.32h.107a29.939 29.939 0 0 1 29.948 29.94v25.71a54.971 54.971 0 0 0 8.523 29.46H43.731zm105.788-74.88l-6.687 6.69a36.247 36.247 0 0 1 .4 50.86l6.791 6.59a45.715 45.715 0 0 0-.504-64.14zm-13.375 13.38l-6.687 6.68a17.347 17.347 0 0 1 .135 24.39l6.761 6.61a26.79 26.79 0 0 0-.209-37.68zM21.575 37.35l-6.687-6.69a45.716 45.716 0 0 0-.5 64.14l6.791-6.59a36.246 36.246 0 0 1 .396-50.86zM34.95 50.72l-6.688-6.68a26.791 26.791 0 0 0-.208 37.68l6.76-6.61a17.348 17.348 0 0 1 .136-24.39z"
    fill="#252525" stroke="#fff" stroke-linejoin="round" stroke-width="3" fill-rule="evenodd"/>
</svg>
