<svg xmlns="http://www.w3.org/2000/svg" width="120" height="120"><path d="M70.34 120a7.769 7.769 0 0 1-6.629-3.71 4.373 4.373 0 0 0-7.422 0 7.846 7.846 0 0 1-14.4-2.86 4.366 4.366 0 0 0-6.858-2.84 7.848 7.848 0 0 1-12.21-8.16 4.365 4.365 0 0 0-5.248-5.25 7.843 7.843 0 0 1-8.158-12.21 4.371 4.371 0 0 0-2.84-6.86 7.842 7.842 0 0 1-2.865-14.4 4.366 4.366 0 0 0 0-7.42 7.842 7.842 0 0 1 2.865-14.4 4.371 4.371 0 0 0 2.84-6.86 7.844 7.844 0 0 1 8.159-12.21 4.373 4.373 0 0 0 5.248-5.25 7.847 7.847 0 0 1 12.209-8.16 4.365 4.365 0 0 0 6.857-2.84 7.847 7.847 0 0 1 14.4-2.86 4.373 4.373 0 0 0 7.422 0 7.841 7.841 0 0 1 14.4 2.86 4.365 4.365 0 0 0 6.857 2.84 7.848 7.848 0 0 1 12.21 8.16 4.366 4.366 0 0 0 5.249 5.25 7.843 7.843 0 0 1 8.158 12.21 4.371 4.371 0 0 0 2.841 6.86 7.842 7.842 0 0 1 2.864 14.4 4.367 4.367 0 0 0 0 7.42 7.842 7.842 0 0 1-2.864 14.4 4.371 4.371 0 0 0-2.841 6.86 7.843 7.843 0 0 1-8.158 12.21 4.366 4.366 0 0 0-5.249 5.25 7.848 7.848 0 0 1-12.21 8.16 4.365 4.365 0 0 0-6.857 2.84 7.8 7.8 0 0 1-6.209 6.42 8.348 8.348 0 0 1-1.561.15zM60 110.75a7.8 7.8 0 0 1 6.663 3.71 4.368 4.368 0 0 0 8.022-1.6 7.847 7.847 0 0 1 12.312-5.1 4.369 4.369 0 0 0 6.8-4.54 7.841 7.841 0 0 1 9.423-9.42 4.369 4.369 0 0 0 4.543-6.8 7.85 7.85 0 0 1 5.1-12.32 4.366 4.366 0 0 0 1.6-8.02 7.838 7.838 0 0 1 0-13.32 4.374 4.374 0 0 0-1.6-8.03 7.839 7.839 0 0 1-5.1-12.31 4.369 4.369 0 0 0-4.543-6.8 7.841 7.841 0 0 1-9.423-9.42 4.369 4.369 0 0 0-6.8-4.54 7.847 7.847 0 0 1-12.312-5.1 4.368 4.368 0 0 0-8.022-1.6 7.838 7.838 0 0 1-13.326 0 4.367 4.367 0 0 0-8.021 1.6 7.848 7.848 0 0 1-12.312 5.1 4.369 4.369 0 0 0-6.8 4.54 7.842 7.842 0 0 1-9.423 9.42 4.369 4.369 0 0 0-4.544 6.8 7.839 7.839 0 0 1-5.1 12.31 4.374 4.374 0 0 0-1.595 8.03 7.838 7.838 0 0 1 0 13.32 4.366 4.366 0 0 0 1.6 8.02 7.85 7.85 0 0 1 5.1 12.32 4.369 4.369 0 0 0 4.543 6.8 7.841 7.841 0 0 1 9.423 9.42 4.369 4.369 0 0 0 6.8 4.54 7.848 7.848 0 0 1 12.313 5.1 4.367 4.367 0 0 0 8.021 1.6A7.8 7.8 0 0 1 60 110.75zm14.546-27.34a8.865 8.865 0 1 1 8.862-8.86 8.875 8.875 0 0 1-8.862 8.86zm0-14.25a5.385 5.385 0 1 0 5.387 5.39 5.4 5.4 0 0 0-5.387-5.39zM38.33 83.41a1.74 1.74 0 0 1-1.229-2.97L80.442 37.1a1.738 1.738 0 0 1 2.457 2.46L39.558 82.9a1.729 1.729 0 0 1-1.228.51zm7.124-29.09a8.865 8.865 0 1 1 8.861-8.87 8.876 8.876 0 0 1-8.861 8.87zm0-14.25a5.385 5.385 0 1 0 5.386 5.38 5.387 5.387 0 0 0-5.386-5.38z" fill="#252525" fill-rule="evenodd"/></svg>