<svg xmlns="http://www.w3.org/2000/svg" width="82" height="120"><path d="M71.846 8.29H50.97a10.14 10.14 0 0 0-19.94 0H10.154A10.213 10.213 0 0 0 0 18.53v91.23A10.206 10.206 0 0 0 10.154 120h61.692A10.206 10.206 0 0 0 82 109.76V18.53A10.213 10.213 0 0 0 71.846 8.29zm-45.37 6.09a2.2 2.2 0 0 1 2.185-2.2h4.113a1.935 1.935 0 0 0 1.928-1.94 6.3 6.3 0 1 1 12.6 0 1.935 1.935 0 0 0 1.928 1.94h4.112a2.2 2.2 0 0 1 2.185 2.2v4.15a2.19 2.19 0 0 1-2.185 2.2H28.661a2.191 2.191 0 0 1-2.184-2.19v-4.16zm2.185 10.24h24.677a6.055 6.055 0 0 0 5.724-4.15h10.856v87.35H12.081V20.47h10.857a6.053 6.053 0 0 0 5.723 4.15zm49.483 85.14a6.332 6.332 0 0 1-6.3 6.35h-61.69a6.332 6.332 0 0 1-6.3-6.35V18.53a6.332 6.332 0 0 1 6.3-6.35h12.877a6.1 6.1 0 0 0-.41 2.2v2.21H10.154a1.935 1.935 0 0 0-1.928 1.94v91.23a1.937 1.937 0 0 0 1.928 1.95h61.692a1.937 1.937 0 0 0 1.928-1.95V18.53a1.935 1.935 0 0 0-1.928-1.94H59.379v-2.21a6.1 6.1 0 0 0-.41-2.2h12.877a6.332 6.332 0 0 1 6.3 6.35v91.23zM41 14.25a1.935 1.935 0 0 0 1.928-1.94v-2.07a1.928 1.928 0 1 0-3.856 0v2.07A1.935 1.935 0 0 0 41 14.25zM28.661 41.21h24.677a6.09 6.09 0 0 0 0-12.18H28.661a6.09 6.09 0 0 0 0 12.18zm0-8.29h24.677a2.2 2.2 0 0 1 0 4.4H28.661a2.2 2.2 0 0 1 0-4.4zM49.226 49.5a1.94 1.94 0 0 0 0-3.88H32.774a1.94 1.94 0 0 0 0 3.88h16.452zM18.379 59.87h39.072a1.945 1.945 0 0 0 0-3.89H18.379a1.945 1.945 0 0 0 0 3.89zm0 8.29h24.677a1.94 1.94 0 0 0 0-3.88H18.379a1.94 1.94 0 0 0 0 3.88zm37.144-1.94a1.935 1.935 0 0 0 1.928 1.94h6.17a1.94 1.94 0 0 0 0-3.88h-6.17a1.935 1.935 0 0 0-1.928 1.94zM18.379 76.46h39.072a1.945 1.945 0 0 0 0-3.89H18.379a1.945 1.945 0 0 0 0 3.89zm0 8.29h24.677a1.945 1.945 0 0 0 0-3.89H18.379a1.945 1.945 0 0 0 0 3.89zm45.242-3.89h-6.17a1.945 1.945 0 0 0 0 3.89h6.17a1.945 1.945 0 0 0 0-3.89zM18.379 93.05h39.072a1.945 1.945 0 0 0 0-3.89H18.379a1.945 1.945 0 0 0 0 3.89zm24.677 4.4H18.379a1.945 1.945 0 0 0 0 3.89h24.677a1.945 1.945 0 0 0 0-3.89zm20.565 0h-6.17a1.945 1.945 0 0 0 0 3.89h6.17a1.945 1.945 0 0 0 0-3.89z" fill="#252525" fill-rule="evenodd"/></svg>