<?xml version="1.0" encoding="utf-8"?>
<!-- Generator: Adobe Illustrator 21.1.0, SVG Export Plug-In . SVG Version: 6.00 Build 0)  -->
<svg version="1.1" id="Layer_1" xmlns="http://www.w3.org/2000/svg" xmlns:xlink="http://www.w3.org/1999/xlink" x="0px" y="0px"
	 viewBox="0 0 44 44" height="44px" width="44px" style="enable-background:new 0 0 44 44;" xml:space="preserve">
<path id="edit_icon" d="M27.3,7.4l8.9,9L13.6,39.2l-8.9-9L27.3,7.4z M43.1,5.2l-4-4c-1.5-1.5-4-1.6-5.5,0
	c0,0,0,0,0,0L29.7,5l8.9,9l4.5-4.5C44.3,8.3,44.3,6.4,43.1,5.2z M0,42.8c-0.1,0.5,0.2,1.1,0.8,1.2c0.2,0,0.3,0,0.5,0l10-2.4l-8.9-9
	L0,42.8z"/>
</svg>
