<?xml version="1.0" encoding="utf-8"?>
<!-- Generator: Adobe Illustrator 21.1.0, SVG Export Plug-In . SVG Version: 6.00 Build 0)  -->
<svg version="1.1" id="Layer_1" xmlns="http://www.w3.org/2000/svg" xmlns:xlink="http://www.w3.org/1999/xlink" x="0px" y="0px"
	 viewBox="0 0 54 54" width="54px" height="54px" style="enable-background:new 0 0 54 54;" xml:space="preserve">
<path id="icon" d="M16.5,24.7c2.9,5.5,7.4,10,12.9,12.9l4.3-4.3c0.5-0.6,1.3-0.7,2-0.4c2.3,0.8,4.6,1.2,7,1.2
	c1-0.1,1.9,0.7,2,1.7c0,0.1,0,0.1,0,0.2v6.6c0.1,1-0.7,1.9-1.7,2c-0.1,0-0.1,0-0.2,0c-18.3,0-33.2-14.8-33.2-33.2c0,0,0,0,0-0.1
	c-0.1-1,0.7-1.9,1.7-2c0.1,0,0.1,0,0.2,0h6.8c1-0.1,1.9,0.7,2,1.7c0,0.1,0,0.1,0,0.2c0,2.4,0.4,4.8,1.2,7c0.2,0.7,0,1.4-0.4,2
	L16.5,24.7z"/>
</svg>
