<?xml version="1.0" encoding="utf-8"?>
<!-- Generator: Adobe Illustrator 21.1.0, SVG Export Plug-In . SVG Version: 6.00 Build 0)  -->
<svg version="1.1" id="Layer_1" xmlns="http://www.w3.org/2000/svg" xmlns:xlink="http://www.w3.org/1999/xlink" x="0px" y="0px"
	 viewBox="0 0 111.1 88.8" width="111px" height="89px" style="enable-background:new 0 0 111.1 88.8;" xml:space="preserve">
<path id="Picture" d="M67.6,10.6H17.3c-0.9,0-1.7,0.7-1.7,1.7s0.7,1.7,1.7,1.7l0,0h50.4
	c0.9,0,1.7-0.7,1.7-1.7S68.5,10.6,67.6,10.6z M95.2,42.8c-0.9,0-1.6,0.7-1.6,1.7v36.6c0,2.4-2,4.4-4.4,4.4H7.7c-2.4,0-4.4-2-4.4-4.4
	V18.3c0-2.4,2-4.4,4.4-4.4h4.1c0.9,0,1.7-0.7,1.7-1.7s-0.7-1.7-1.7-1.7H7.7c-4.2,0-7.7,3.4-7.7,7.7v62.8c0,4.2,3.4,7.7,7.7,7.7h81.5
	c4.2,0,7.7-3.4,7.7-7.7V44.5C96.8,43.6,96.1,42.8,95.2,42.8L95.2,42.8z M88.6,71c-0.9,0-1.6,0.7-1.6,1.7l0,0v6.2h-77V21.1h56.4
	c0.9,0,1.7-0.7,1.7-1.7s-0.7-1.7-1.7-1.7h-58c-0.9,0-1.6,0.7-1.7,1.7v61.1c0,0.9,0.7,1.6,1.7,1.7h80.3c0.9,0,1.6-0.7,1.6-1.7v-7.8
	C90.2,71.8,89.5,71,88.6,71L88.6,71z M88.6,43.2c-0.9,0-1.6,0.7-1.6,1.7l0,0v22.4c0,0.9,0.7,1.7,1.6,1.7c0.9,0,1.7-0.7,1.7-1.7l0,0
	V44.8C90.2,43.9,89.5,43.2,88.6,43.2L88.6,43.2z M62,39.8c-0.8,0-1.6-0.5-1.9-1.2l-0.4-0.9c-0.8-1.9-2.6-3.1-4.7-3.2H41.8
	c-2.1,0-3.9,1.2-4.7,3.2l-0.4,0.9c-0.3,0.8-1,1.3-1.9,1.2c-2.8,0-5.1,2.3-5.1,5.1v16.2c0,2.8,2.3,5.1,5.1,5.1H62
	c2.8,0,5.1-2.3,5.1-5.1V44.9C67.1,42.1,64.8,39.8,62,39.8L62,39.8z M64,61.1L64,61.1c0,1.1-0.9,2-2,2H34.8c-1.1,0-2-0.9-2-2V44.9
	c0-1.1,0.9-2,2-2c0,0,0,0,0,0c2.1,0,3.9-1.2,4.7-3.2l0.4-0.9c0.3-0.8,1-1.3,1.9-1.2h13.3c0.8,0,1.6,0.5,1.9,1.2l0.4,0.9
	c0.8,1.9,2.6,3.1,4.7,3.2c1.1,0,2,0.9,2,2c0,0,0,0,0,0L64,61.1L64,61.1L64,61.1z M48.4,43.1c-4.6,0-8.4,3.8-8.4,8.4
	c0,4.6,3.8,8.4,8.4,8.4s8.4-3.8,8.4-8.4C56.8,46.8,53,43.1,48.4,43.1z M48.4,56.8c-2.9,0-5.3-2.4-5.3-5.3s2.4-5.3,5.3-5.3
	c2.9,0,5.3,2.4,5.3,5.3c0,0,0,0,0,0C53.7,54.4,51.3,56.8,48.4,56.8z M90.7,0C79.4,0,70.2,9.2,70.2,20.5c0,11.3,9.2,20.5,20.5,20.5
	c11.3,0,20.5-9.2,20.5-20.5l0,0C111.1,9.2,102,0,90.7,0z M90.7,37.6c-9.5,0-17.2-7.7-17.2-17.2S81.2,3.3,90.6,3.3
	c9.5,0,17.2,7.7,17.2,17.2c0,0,0,0,0,0C107.8,29.9,100.1,37.6,90.7,37.6z M100.6,18.8h-8.2v-8.2c0-0.9-0.7-1.7-1.6-1.7
	c-0.9,0-1.7,0.7-1.7,1.7v8.2h-8.2c-0.9,0-1.7,0.7-1.7,1.7s0.7,1.7,1.7,1.7H89v8.2c0,0.9,0.7,1.7,1.7,1.7c0.9,0,1.6-0.7,1.6-1.7v-8.2
	h8.2c0.9,0,1.7-0.7,1.7-1.7S101.5,18.8,100.6,18.8z"/>
</svg>
