<svg id="svg" version="1.1" width="400px" height="457px" viewBox="0 0 400 457.14285714285717" xmlns="http://www.w3.org/2000/svg" xmlns:xlink="http://www.w3.org/1999/xlink" ><g id="svgg"><path id="path0" d="M67.600 1.186 L 67.600 2.371 63.700 2.486 L 59.800 2.600 59.679 4.486 L 59.557 6.372 55.479 6.486 L 51.400 6.600 51.278 8.500 L 51.156 10.400 47.811 10.400 C 43.396 10.400,43.200 10.496,43.200 12.643 L 43.200 14.400 41.420 14.400 C 37.310 14.400,35.671 15.078,35.307 16.929 C 34.983 18.577,34.953 18.602,33.131 18.720 C 31.153 18.849,30.817 19.279,30.805 21.700 C 30.800 22.732,30.692 22.800,29.043 22.800 C 27.101 22.800,26.800 23.153,26.800 25.433 C 26.800 26.722,26.722 26.800,25.433 26.800 C 23.153 26.800,22.800 27.101,22.800 29.043 C 22.800 30.692,22.732 30.800,21.700 30.805 C 19.279 30.817,18.849 31.153,18.720 33.131 C 18.602 34.953,18.577 34.983,16.929 35.307 C 15.078 35.671,14.400 37.310,14.400 41.420 L 14.400 43.200 12.643 43.200 C 10.496 43.200,10.400 43.396,10.400 47.811 L 10.400 51.156 8.500 51.278 L 6.600 51.400 6.486 55.300 L 6.371 59.200 5.018 59.200 C 2.351 59.200,2.400 59.078,2.400 65.643 L 2.400 71.600 1.200 71.600 L 0.000 71.600 0.000 96.000 L 0.000 120.400 1.200 120.400 L 2.400 120.400 2.413 127.500 C 2.427 135.370,2.572 135.891,4.878 136.361 L 6.200 136.631 6.530 140.011 C 6.908 143.879,7.200 144.400,8.990 144.400 L 10.281 144.400 10.526 147.900 C 10.792 151.704,11.445 152.800,13.444 152.800 C 14.270 152.800,14.400 152.991,14.400 154.200 C 14.400 156.030,15.562 157.200,17.378 157.200 C 18.738 157.200,18.758 157.225,18.878 159.100 L 19.000 161.000 20.900 161.122 L 22.800 161.244 22.800 163.222 L 22.800 165.200 24.800 165.200 L 26.800 165.200 26.800 167.200 L 26.800 169.200 28.800 169.200 L 30.800 169.200 30.800 171.200 L 30.800 173.200 32.800 173.200 L 34.800 173.200 34.800 174.920 C 34.800 177.081,35.319 177.600,37.480 177.600 L 39.200 177.600 39.200 179.210 C 39.200 181.222,39.995 181.600,44.226 181.600 L 47.200 181.600 47.200 183.120 C 47.200 185.337,47.675 185.600,51.680 185.600 L 55.200 185.600 55.200 187.120 C 55.200 189.489,55.499 189.600,61.880 189.600 L 67.600 189.600 67.600 190.967 C 67.600 193.764,66.823 193.600,80.043 193.600 L 92.000 193.600 92.000 194.911 C 92.000 195.632,92.280 196.622,92.623 197.111 L 93.245 198.000 119.223 198.000 L 145.200 198.000 145.200 204.974 C 145.200 213.362,145.369 214.000,147.590 214.000 C 149.196 214.000,149.200 214.004,149.200 215.567 C 149.200 218.061,149.468 218.400,151.443 218.400 L 153.200 218.400 153.200 219.920 C 153.200 220.756,153.416 221.656,153.680 221.920 C 154.053 222.293,154.053 222.507,153.680 222.880 C 153.375 223.185,153.200 224.720,153.200 227.080 L 153.200 230.800 135.900 230.813 C 115.391 230.828,116.442 230.500,116.410 236.900 L 116.400 238.800 114.880 238.800 C 112.932 238.800,112.400 239.364,112.400 241.429 C 112.400 243.059,112.364 243.104,110.844 243.347 C 108.992 243.643,108.840 243.953,108.522 248.082 L 108.281 251.200 106.362 251.200 L 104.442 251.200 104.321 253.300 C 104.205 255.305,104.146 255.406,103.000 255.533 C 100.727 255.786,100.400 256.475,100.400 261.018 C 100.400 266.438,100.626 266.729,105.100 267.068 L 108.400 267.319 108.400 268.810 C 108.400 271.155,108.678 271.231,116.852 271.109 L 124.200 271.000 124.322 269.100 C 124.431 267.400,124.544 267.200,125.396 267.200 C 128.110 267.200,128.400 266.759,128.400 262.631 L 128.400 258.842 130.500 258.721 L 132.600 258.600 132.722 256.700 L 132.844 254.800 143.022 254.800 L 153.200 254.800 153.200 265.188 L 153.200 275.576 135.368 275.688 C 114.606 275.818,116.400 275.365,116.400 280.476 L 116.400 283.600 114.880 283.600 C 112.976 283.600,112.400 284.164,112.400 286.029 C 112.400 287.435,112.331 287.509,110.788 287.756 C 108.784 288.076,108.400 288.919,108.400 293.004 L 108.400 295.956 106.500 296.078 L 104.600 296.200 104.478 298.100 C 104.369 299.800,104.256 300.000,103.404 300.000 C 100.781 300.000,100.400 300.507,100.400 304.000 C 100.400 307.493,100.781 308.000,103.404 308.000 C 104.256 308.000,104.369 308.200,104.478 309.900 L 104.600 311.800 106.500 311.922 C 108.200 312.031,108.400 312.144,108.400 312.996 C 108.400 313.520,108.576 314.410,108.790 314.974 L 109.180 316.000 116.769 316.000 L 124.358 316.000 124.479 313.905 C 124.600 311.811,124.601 311.810,126.142 311.561 C 128.160 311.235,128.387 310.787,128.394 307.100 L 128.400 304.000 130.120 304.000 C 132.281 304.000,132.800 303.481,132.800 301.320 L 132.800 299.600 143.000 299.600 L 153.200 299.600 153.200 303.557 C 153.200 307.915,153.250 308.000,155.833 308.000 L 157.200 308.000 157.200 312.200 L 157.200 316.400 155.614 316.400 C 153.837 316.400,153.200 317.120,153.200 319.128 C 153.200 320.217,153.062 320.330,151.446 320.572 C 149.424 320.875,149.200 321.401,149.200 325.850 C 149.200 328.378,149.190 328.400,148.076 328.400 C 145.208 328.400,145.400 326.319,145.400 357.468 L 145.400 385.400 160.800 385.497 C 177.708 385.603,177.199 385.677,177.496 383.049 L 177.704 381.200 181.652 381.200 L 185.600 381.200 185.600 379.200 L 185.600 377.200 187.800 377.200 L 190.000 377.200 190.000 385.592 L 190.000 393.983 181.900 394.092 L 173.800 394.200 173.698 425.500 L 173.595 456.800 199.998 456.800 L 226.400 456.800 226.400 425.400 L 226.400 394.000 218.400 394.000 L 210.400 394.000 210.400 385.600 L 210.400 377.200 212.400 377.200 L 214.400 377.200 214.400 378.567 C 214.400 381.150,214.485 381.200,218.843 381.200 L 222.800 381.200 222.800 382.986 C 222.800 385.676,222.445 385.623,239.683 385.505 L 255.000 385.400 255.103 358.133 C 255.216 328.202,255.272 328.949,252.852 328.562 L 251.278 328.310 251.139 324.975 C 250.982 321.209,250.752 320.825,248.468 320.518 C 246.852 320.302,246.839 320.286,246.720 318.450 L 246.600 316.600 244.700 316.478 L 242.800 316.356 242.800 312.200 L 242.800 308.044 244.700 307.922 L 246.600 307.800 246.714 303.700 L 246.828 299.600 257.214 299.600 L 267.600 299.600 267.600 301.320 C 267.600 303.422,268.122 304.000,270.022 304.000 L 271.485 304.000 271.758 307.278 C 272.073 311.051,272.389 311.600,274.249 311.600 C 275.554 311.600,275.600 311.654,275.600 313.167 C 275.600 316.126,275.245 316.000,283.579 316.000 L 291.072 316.000 291.536 314.981 C 291.791 314.421,292.000 313.531,292.000 313.003 C 292.000 312.142,292.195 312.031,293.900 311.922 L 295.800 311.800 295.920 309.950 C 296.039 308.117,296.054 308.098,297.653 307.884 C 299.802 307.595,299.800 307.599,299.800 304.000 C 299.800 300.401,299.802 300.405,297.653 300.116 C 296.054 299.902,296.039 299.883,295.920 298.050 L 295.800 296.200 293.939 296.080 L 292.078 295.959 291.939 292.399 C 291.783 288.402,291.569 288.027,289.268 287.718 C 287.652 287.502,287.639 287.486,287.520 285.650 L 287.400 283.800 285.500 283.678 L 283.600 283.556 283.600 279.968 C 283.600 275.262,285.103 275.600,264.174 275.600 L 246.800 275.600 246.800 265.200 L 246.800 254.800 257.178 254.800 L 267.556 254.800 267.678 256.700 L 267.800 258.600 269.700 258.722 L 271.600 258.844 271.600 261.572 C 271.600 266.212,271.810 266.723,273.846 267.028 L 275.600 267.291 275.600 269.003 C 275.600 271.229,275.490 271.200,283.953 271.200 C 291.788 271.200,292.000 271.136,292.000 268.778 L 292.000 267.315 295.300 267.041 C 299.714 266.674,299.766 266.608,299.785 261.263 C 299.802 256.330,299.488 255.600,297.351 255.600 C 296.046 255.600,296.000 255.546,296.000 254.033 C 296.000 251.539,295.732 251.200,293.757 251.200 L 292.000 251.200 292.000 249.420 C 292.000 245.310,291.322 243.671,289.471 243.307 C 287.836 242.986,287.797 242.940,287.672 241.196 C 287.526 239.145,287.170 238.815,285.100 238.806 L 283.600 238.800 283.600 235.670 C 283.600 230.431,285.064 230.800,264.274 230.800 L 246.800 230.800 246.800 226.880 C 246.800 224.364,246.628 222.788,246.320 222.480 C 245.947 222.107,245.947 222.000,246.320 222.000 C 246.622 222.000,246.800 221.333,246.800 220.200 L 246.800 218.400 248.520 218.400 C 250.681 218.400,251.200 217.881,251.200 215.720 L 251.200 214.000 252.736 214.000 C 254.993 214.000,255.200 213.241,255.200 204.981 L 255.200 198.000 280.826 198.000 C 309.214 198.000,308.000 198.117,308.000 195.386 L 308.000 193.600 320.157 193.600 C 333.599 193.600,332.800 193.766,332.800 190.967 L 332.800 189.600 338.167 189.600 C 344.779 189.600,344.800 189.593,344.800 187.357 L 344.800 185.600 348.520 185.600 C 352.741 185.600,353.200 185.357,353.200 183.120 L 353.200 181.600 356.226 181.600 C 359.986 181.600,360.721 181.232,361.048 179.187 C 361.285 177.711,361.394 177.600,362.618 177.600 C 364.891 177.600,365.200 177.308,365.200 175.157 L 365.200 173.200 367.200 173.200 L 369.200 173.200 369.200 171.200 L 369.200 169.200 371.400 169.200 L 373.600 169.200 373.600 167.222 L 373.600 165.244 375.500 165.122 L 377.400 165.000 377.522 163.100 L 377.644 161.200 379.379 161.200 C 381.297 161.200,381.600 160.841,381.600 158.567 C 381.600 157.308,381.697 157.200,382.826 157.200 C 384.951 157.200,385.600 156.588,385.600 154.586 C 385.600 152.907,385.666 152.799,386.700 152.787 C 388.859 152.762,389.380 151.917,389.600 148.084 L 389.800 144.600 391.299 144.476 C 393.209 144.318,393.559 143.660,393.868 139.646 L 394.112 136.484 395.612 136.244 C 397.637 135.921,397.700 135.678,397.909 127.500 L 398.089 120.400 399.045 120.400 L 400.000 120.400 400.000 96.000 L 400.000 71.600 399.000 71.600 L 398.000 71.600 398.000 65.880 C 398.000 59.499,397.889 59.200,395.520 59.200 L 394.000 59.200 394.000 55.443 C 394.000 51.261,393.959 51.200,391.167 51.200 L 389.600 51.200 389.600 47.200 L 389.600 43.200 387.600 43.200 L 385.600 43.200 385.600 40.076 C 385.600 36.488,385.185 35.659,383.180 35.250 C 381.916 34.992,381.781 34.823,381.569 33.250 C 381.307 31.309,380.768 30.815,378.900 30.806 C 377.662 30.800,377.600 30.727,377.600 29.280 C 377.600 27.364,377.036 26.800,375.120 26.800 C 373.656 26.800,373.600 26.749,373.600 25.433 C 373.600 23.109,373.315 22.800,371.179 22.800 L 369.244 22.800 369.122 20.900 L 369.000 19.000 367.100 18.878 C 365.337 18.765,365.199 18.678,365.187 17.678 C 365.161 15.449,363.264 14.430,359.100 14.410 L 357.200 14.400 357.200 12.880 C 357.200 10.645,356.739 10.400,352.542 10.400 L 348.844 10.400 348.722 8.500 L 348.600 6.600 344.700 6.486 L 340.800 6.371 340.795 5.286 C 340.780 2.474,340.671 2.400,336.553 2.400 L 332.800 2.400 332.800 1.200 L 332.800 0.000 316.600 0.000 L 300.400 0.000 300.400 17.400 L 300.400 34.800 292.200 34.800 L 284.000 34.800 284.000 71.400 L 284.000 108.000 285.962 108.000 L 287.925 108.000 288.062 113.767 C 288.216 120.225,288.132 119.987,290.367 120.286 L 292.000 120.505 292.010 122.353 C 292.031 126.411,292.732 127.898,294.863 128.402 C 295.610 128.579,290.063 128.736,282.290 128.759 L 268.380 128.800 267.990 129.826 C 267.776 130.390,267.600 131.290,267.600 131.826 C 267.600 132.790,267.561 132.800,263.700 132.817 C 257.117 132.847,255.619 133.374,255.606 135.663 C 255.600 136.667,255.479 136.734,253.399 136.863 L 251.199 137.000 251.199 133.919 C 251.200 129.663,250.751 128.800,248.536 128.800 L 246.800 128.800 246.787 125.700 C 246.773 122.152,246.312 121.244,244.322 120.840 C 243.091 120.590,242.991 120.449,242.872 118.792 C 242.726 116.745,242.370 116.415,240.300 116.406 L 238.800 116.400 238.800 100.000 L 238.800 83.600 240.167 83.600 C 242.941 83.600,242.800 84.159,242.800 73.157 L 242.800 63.200 244.167 63.200 C 246.735 63.200,246.800 63.094,246.800 58.957 L 246.800 55.200 248.520 55.200 C 250.973 55.200,251.200 54.803,251.200 50.520 L 251.200 46.800 253.200 46.800 L 255.200 46.800 255.200 44.822 L 255.200 42.844 257.100 42.722 L 259.000 42.600 259.000 35.561 C 259.000 27.741,258.844 27.200,256.594 27.200 C 255.259 27.200,254.800 26.680,254.800 25.167 C 254.800 23.095,253.730 22.800,246.200 22.800 L 239.200 22.800 239.200 24.748 L 239.200 26.696 237.351 26.904 C 235.233 27.143,234.815 27.603,234.806 29.700 C 234.800 31.136,234.742 31.200,233.449 31.200 C 231.568 31.200,231.253 31.772,230.949 35.732 L 230.682 39.200 228.988 39.200 C 226.956 39.200,226.814 39.520,226.805 44.100 C 226.800 47.116,226.774 47.200,225.826 47.200 C 225.290 47.200,224.390 47.376,223.826 47.590 L 222.800 47.980 222.800 53.590 L 222.800 59.200 221.826 59.200 C 221.290 59.200,220.390 59.376,219.826 59.590 L 218.800 59.980 218.754 76.090 C 218.728 84.951,218.650 91.930,218.580 91.600 C 218.510 91.270,218.343 90.325,218.209 89.500 L 217.964 88.000 214.182 88.000 L 210.400 88.000 210.400 44.000 L 210.400 0.000 200.200 0.000 L 190.000 0.000 190.000 43.986 L 190.000 87.971 186.100 88.086 L 182.200 88.200 181.970 90.200 C 181.843 91.300,181.663 85.030,181.570 76.267 C 181.381 58.593,181.483 59.200,178.724 59.200 L 177.600 59.200 177.595 54.300 C 177.587 47.856,177.537 47.700,175.358 47.373 L 173.600 47.109 173.600 43.928 C 173.600 39.803,173.272 39.200,171.026 39.200 L 169.280 39.200 169.140 35.633 C 168.982 31.601,168.964 31.565,166.904 31.233 C 165.439 30.997,165.397 30.942,165.280 29.136 C 165.151 27.152,164.723 26.817,162.300 26.805 C 161.316 26.801,161.200 26.656,161.200 25.433 C 161.200 22.719,161.427 22.800,153.819 22.800 C 146.281 22.800,145.600 23.003,145.600 25.251 C 145.600 26.529,144.906 27.200,143.582 27.200 C 141.382 27.200,141.170 27.982,141.290 35.642 L 141.400 42.600 143.300 42.722 L 145.200 42.844 145.200 44.822 L 145.200 46.800 147.200 46.800 L 149.200 46.800 149.200 50.520 C 149.200 54.741,149.443 55.200,151.680 55.200 L 153.200 55.200 153.200 58.720 C 153.200 62.725,153.463 63.200,155.680 63.200 L 157.200 63.200 157.210 73.300 C 157.222 86.166,157.541 87.553,160.500 87.587 L 161.600 87.600 161.600 102.000 L 161.600 116.400 159.880 116.400 C 157.730 116.400,157.200 116.919,157.200 119.029 C 157.200 120.661,157.165 120.703,155.633 120.948 C 153.895 121.226,153.200 122.961,153.200 127.020 L 153.200 128.800 151.590 128.800 C 149.453 128.800,149.217 129.486,149.137 135.926 C 149.096 139.256,148.993 140.313,148.837 139.000 L 148.600 137.000 146.700 136.878 C 144.916 136.764,144.800 136.688,144.800 135.640 C 144.800 133.514,143.754 133.089,137.996 132.881 C 132.882 132.697,132.800 132.679,132.800 131.766 C 132.800 131.255,132.591 130.379,132.336 129.819 L 131.872 128.800 117.836 128.740 C 110.116 128.707,104.340 128.603,105.000 128.508 C 107.310 128.177,108.000 127.043,108.000 123.583 L 108.000 120.505 109.648 120.284 C 112.109 119.954,112.186 119.762,112.330 113.581 L 112.460 108.000 114.223 108.000 C 116.600 108.000,116.435 110.956,116.310 70.600 L 116.200 35.000 108.100 34.892 L 100.000 34.783 100.000 17.392 L 100.000 0.000 83.800 0.000 L 67.600 0.000 67.600 1.186 M80.000 30.800 L 80.000 39.200 77.800 39.200 L 75.600 39.200 75.600 41.200 L 75.600 43.200 73.600 43.200 L 71.600 43.200 71.600 45.178 L 71.600 47.156 69.700 47.278 L 67.800 47.400 67.678 49.300 L 67.556 51.200 65.578 51.200 L 63.600 51.200 63.600 53.200 C 63.600 55.165,63.579 55.200,62.374 55.200 C 59.857 55.200,59.600 55.625,59.600 59.793 L 59.600 63.558 57.500 63.679 L 55.400 63.800 55.286 67.700 L 55.171 71.600 53.666 71.600 C 51.196 71.600,51.200 71.583,51.200 82.080 L 51.200 91.600 55.400 91.600 L 59.600 91.600 59.600 93.336 C 59.600 95.672,60.404 96.000,66.139 96.000 C 71.693 96.000,71.600 96.080,71.600 91.320 L 71.600 87.600 73.353 87.600 C 75.465 87.600,75.587 87.323,75.595 82.500 L 75.600 79.200 76.951 79.200 C 78.830 79.200,79.147 78.628,79.450 74.688 L 79.715 71.239 81.558 71.120 L 83.400 71.000 83.522 69.100 C 83.636 67.320,83.714 67.200,84.752 67.200 C 86.131 67.200,87.492 65.802,87.668 64.205 C 87.783 63.166,87.997 62.978,89.304 62.767 C 91.156 62.469,91.254 62.373,91.616 60.504 C 91.777 59.677,91.929 69.215,91.954 81.700 L 92.000 104.400 90.243 104.400 C 88.096 104.400,88.000 104.596,88.000 109.011 L 88.000 112.356 86.100 112.478 L 84.200 112.600 84.000 114.586 C 83.810 116.475,83.733 116.585,82.420 116.852 C 80.416 117.258,80.000 118.088,80.000 121.676 L 80.000 124.800 78.264 124.800 C 76.059 124.800,75.600 125.665,75.600 129.819 L 75.600 132.800 74.080 132.800 C 71.863 132.800,71.600 133.275,71.600 137.280 L 71.600 140.800 69.843 140.800 C 67.868 140.800,67.600 141.139,67.600 143.633 C 67.600 145.067,67.509 145.200,66.526 145.200 C 64.246 145.200,63.599 146.482,63.613 150.970 C 63.630 156.406,64.371 157.164,69.700 157.190 L 71.600 157.200 71.600 158.751 C 71.600 161.162,71.848 161.231,80.052 161.109 L 87.400 161.000 87.600 159.011 C 87.798 157.038,87.814 157.018,89.480 156.691 C 91.057 156.381,91.181 156.257,91.493 154.680 L 91.825 153.000 110.313 152.896 L 128.800 152.792 128.800 154.363 C 128.800 156.900,129.053 157.200,131.192 157.200 L 133.098 157.200 133.348 158.767 C 133.626 160.505,135.361 161.200,139.420 161.200 L 141.200 161.200 141.200 163.200 L 141.200 165.200 143.200 165.200 L 145.200 165.200 145.200 169.400 L 145.200 173.600 114.400 173.600 L 83.600 173.600 83.600 171.600 L 83.600 169.600 77.600 169.600 L 71.600 169.600 71.600 168.374 C 71.600 165.854,71.177 165.600,66.986 165.600 L 63.200 165.600 63.200 163.864 C 63.200 161.659,62.335 161.200,58.181 161.200 L 55.200 161.200 55.200 159.443 C 55.200 157.501,54.847 157.200,52.567 157.200 C 51.293 157.200,51.200 157.112,51.194 155.900 C 51.185 154.012,50.721 153.538,48.649 153.304 C 46.987 153.117,46.800 152.993,46.800 152.074 C 46.800 150.677,45.325 149.200,43.930 149.200 C 42.888 149.200,42.800 149.081,42.800 147.680 C 42.800 145.764,42.236 145.200,40.320 145.200 L 38.800 145.200 38.800 143.480 C 38.800 141.369,38.278 140.800,36.342 140.800 L 34.844 140.800 34.722 138.900 L 34.600 137.000 32.714 136.879 L 30.828 136.757 30.714 132.879 L 30.600 129.000 28.500 128.879 L 26.400 128.758 26.400 123.043 L 26.400 117.328 25.381 116.864 C 24.821 116.609,23.921 116.400,23.381 116.400 L 22.400 116.400 22.400 96.000 L 22.400 75.600 23.626 75.600 C 26.146 75.600,26.400 75.177,26.400 70.986 L 26.400 67.200 27.500 67.187 C 29.788 67.161,30.771 65.283,30.790 60.900 L 30.800 58.800 32.210 58.800 C 33.941 58.800,34.364 57.933,34.690 53.720 L 34.913 50.839 36.756 50.720 L 38.600 50.600 38.722 48.700 L 38.844 46.800 40.822 46.800 L 42.800 46.800 42.800 44.822 L 42.800 42.844 44.700 42.722 L 46.600 42.600 46.721 40.720 L 46.842 38.840 48.921 38.720 L 51.000 38.600 51.120 36.740 L 51.241 34.880 54.600 34.740 C 58.398 34.582,58.775 34.356,59.084 32.048 L 59.305 30.400 62.437 30.400 C 65.971 30.400,67.200 29.658,67.200 27.525 L 67.200 26.400 71.157 26.400 C 75.515 26.400,75.600 26.350,75.600 23.767 L 75.600 22.400 77.800 22.400 L 80.000 22.400 80.000 30.800 M324.806 23.900 C 324.816 26.221,325.045 26.356,329.202 26.484 L 332.977 26.600 333.303 28.257 C 333.689 30.212,334.097 30.387,338.300 30.395 L 341.200 30.400 341.200 32.136 C 341.200 34.339,342.065 34.800,346.197 34.800 L 349.156 34.800 349.278 36.700 L 349.400 38.600 351.300 38.722 L 353.200 38.844 353.200 40.579 C 353.200 42.494,353.560 42.800,355.811 42.800 C 357.132 42.800,357.158 42.834,357.278 44.700 L 357.400 46.600 359.500 46.721 L 361.600 46.842 361.600 48.821 L 361.600 50.800 363.552 50.800 L 365.505 50.800 365.670 54.584 C 365.859 58.903,365.806 58.796,367.911 59.079 L 369.488 59.290 369.735 62.545 C 370.003 66.086,370.700 67.200,372.644 67.200 C 373.577 67.200,373.600 67.282,373.600 70.600 C 373.600 74.579,374.212 75.600,376.600 75.600 L 378.000 75.600 378.000 95.947 L 378.000 116.295 376.352 116.516 C 373.892 116.846,373.814 117.039,373.670 123.198 L 373.540 128.759 371.670 128.879 L 369.800 129.000 369.686 132.879 L 369.572 136.757 367.686 136.879 L 365.800 137.000 365.678 138.900 C 365.558 140.766,365.532 140.800,364.211 140.800 C 361.906 140.800,361.600 141.087,361.600 143.243 L 361.600 145.200 359.864 145.200 C 357.986 145.200,357.200 146.091,357.200 148.219 C 357.200 148.977,356.990 149.200,356.276 149.200 C 354.907 149.200,353.967 150.066,353.650 151.620 C 353.392 152.884,353.223 153.019,351.650 153.231 C 349.714 153.492,349.215 154.033,349.206 155.878 C 349.200 157.118,349.143 157.160,347.300 157.278 L 345.400 157.400 345.280 159.261 L 345.159 161.122 341.599 161.261 C 337.596 161.417,337.227 161.629,336.916 163.952 L 336.695 165.600 332.994 165.600 C 328.932 165.600,328.819 165.678,328.805 168.500 L 328.800 169.600 322.843 169.600 C 316.274 169.600,316.400 169.549,316.400 172.233 L 316.400 173.600 285.800 173.600 L 255.200 173.600 255.200 169.422 L 255.200 165.244 257.100 165.122 L 259.000 165.000 259.122 163.100 L 259.244 161.200 261.122 161.190 C 265.205 161.170,267.200 160.163,267.200 158.124 C 267.200 157.302,267.390 157.200,268.920 157.200 C 271.082 157.200,271.600 156.681,271.600 154.516 L 271.600 152.792 290.095 152.896 C 308.242 152.998,308.591 153.015,308.710 153.800 C 309.079 156.236,309.191 156.389,310.807 156.647 C 312.375 156.898,312.400 156.929,312.400 158.602 C 312.400 161.181,312.571 161.232,320.852 161.109 L 328.200 161.000 328.322 159.100 L 328.444 157.200 330.202 157.200 C 335.963 157.200,336.613 156.512,336.579 150.448 C 336.557 146.343,335.942 145.200,333.756 145.200 C 332.896 145.200,332.800 145.027,332.800 143.480 C 332.800 141.322,332.281 140.800,330.134 140.800 L 328.429 140.800 328.314 136.900 L 328.200 133.000 326.300 132.878 L 324.400 132.756 324.400 129.258 C 324.400 125.296,324.131 124.800,321.979 124.800 L 320.518 124.800 320.253 121.300 C 319.965 117.487,319.552 116.800,317.544 116.800 C 316.496 116.800,316.436 116.696,316.321 114.700 L 316.200 112.600 314.300 112.478 L 312.400 112.356 312.400 109.011 C 312.400 104.532,312.330 104.400,309.957 104.400 L 308.000 104.400 308.000 81.800 C 308.000 67.000,308.138 59.200,308.400 59.200 C 308.620 59.200,308.800 59.794,308.800 60.520 C 308.800 62.178,309.410 62.800,311.037 62.800 C 312.340 62.800,312.800 63.331,312.800 64.833 C 312.800 65.913,314.214 67.200,315.400 67.200 C 316.249 67.200,316.400 67.385,316.400 68.426 C 316.400 70.551,317.012 71.200,319.014 71.200 L 320.800 71.200 320.800 74.311 C 320.800 77.970,321.364 79.088,323.305 79.275 L 324.600 79.400 324.698 82.200 C 324.879 87.395,324.967 87.600,327.018 87.600 L 328.800 87.600 328.800 91.320 C 328.800 96.093,328.689 96.000,334.404 96.000 C 339.769 96.000,340.349 95.749,340.679 93.286 L 340.905 91.600 344.860 91.600 L 348.814 91.600 348.707 81.700 L 348.600 71.800 346.700 71.678 L 344.800 71.556 344.800 67.578 L 344.800 63.600 342.800 63.600 L 340.800 63.600 340.800 60.029 C 340.800 55.956,340.392 55.200,338.193 55.200 C 336.867 55.200,336.842 55.167,336.722 53.300 L 336.600 51.400 334.721 51.279 L 332.842 51.158 332.721 49.279 L 332.600 47.400 330.500 47.279 L 328.400 47.158 328.400 45.179 L 328.400 43.200 326.400 43.200 L 324.400 43.200 324.400 41.200 L 324.400 39.200 322.400 39.200 L 320.400 39.200 320.400 30.800 L 320.400 22.400 322.600 22.400 L 324.800 22.400 324.806 23.900 M202.400 110.000 L 202.400 112.000 204.379 112.000 L 206.358 112.000 206.479 114.100 L 206.600 116.200 208.444 116.320 L 210.288 116.439 210.560 119.698 C 210.873 123.450,211.191 124.000,213.049 124.000 C 214.279 124.000,214.400 124.106,214.400 125.181 C 214.400 127.500,215.139 128.400,217.042 128.400 L 218.756 128.400 218.878 130.300 L 219.000 132.200 220.880 132.321 L 222.760 132.442 222.880 134.521 L 223.000 136.600 224.900 136.722 L 226.800 136.844 226.800 140.342 C 226.800 144.324,227.065 144.800,229.280 144.800 L 230.800 144.800 230.800 173.400 L 230.800 202.000 200.000 202.000 L 169.200 202.000 169.200 173.400 L 169.200 144.800 170.920 144.800 C 173.353 144.800,173.600 144.387,173.600 140.320 L 173.600 136.800 175.357 136.800 C 177.332 136.800,177.600 136.461,177.600 133.967 L 177.600 132.400 179.353 132.400 C 181.241 132.400,181.582 131.958,181.595 129.500 C 181.600 128.490,181.727 128.400,183.151 128.400 C 185.014 128.400,185.499 127.899,185.670 125.800 C 185.793 124.294,185.883 124.196,187.342 123.961 C 189.359 123.636,189.587 123.186,189.594 119.521 L 189.600 116.442 191.700 116.321 L 193.800 116.200 193.920 114.121 L 194.040 112.042 195.920 111.921 L 197.800 111.800 197.922 109.900 L 198.044 108.000 200.222 108.000 L 202.400 108.000 202.400 110.000 M175.065 145.783 C 173.637 146.864,172.979 157.464,174.033 162.381 C 174.596 165.007,174.568 165.000,185.200 165.000 L 193.800 165.000 193.922 163.100 L 194.044 161.200 195.542 161.200 C 197.842 161.200,198.000 160.824,198.000 155.353 C 198.000 149.263,197.977 149.200,195.757 149.200 L 194.000 149.200 194.000 147.200 L 194.000 145.200 184.900 145.213 C 177.755 145.223,175.642 145.345,175.065 145.783 M206.400 147.200 L 206.400 149.200 204.400 149.200 L 202.400 149.200 202.400 154.957 C 202.400 161.298,202.359 161.200,205.011 161.200 C 206.332 161.200,206.358 161.234,206.478 163.100 L 206.600 165.000 215.736 165.000 C 227.439 165.000,226.400 165.972,226.400 155.025 C 226.400 144.283,227.419 145.200,215.474 145.200 L 206.400 145.200 206.400 147.200 M218.878 228.300 L 219.000 230.200 220.900 230.322 L 222.800 230.444 222.800 233.546 C 222.800 237.127,223.539 238.400,225.616 238.400 L 226.800 238.400 226.800 242.800 L 226.800 247.200 225.616 247.200 C 223.534 247.200,222.800 248.472,222.800 252.075 L 222.800 255.200 221.700 255.205 C 219.242 255.218,218.800 255.559,218.800 257.447 L 218.800 259.200 200.200 259.200 L 181.600 259.200 181.600 257.829 C 181.600 256.103,180.717 255.200,179.031 255.200 L 177.719 255.200 177.478 252.082 C 177.160 247.953,177.008 247.643,175.156 247.347 L 173.600 247.098 173.600 242.800 L 173.600 238.502 175.156 238.253 C 177.006 237.958,177.160 237.645,177.477 233.538 L 177.716 230.439 179.558 230.320 L 181.400 230.200 181.522 228.300 L 181.644 226.400 200.200 226.400 L 218.756 226.400 218.878 228.300 M226.800 287.800 L 226.800 292.000 225.280 292.000 C 223.065 292.000,222.800 292.476,222.800 296.458 L 222.800 299.956 220.900 300.078 L 219.000 300.200 218.878 302.100 L 218.756 304.000 200.200 304.000 L 181.644 304.000 181.522 302.100 L 181.400 300.200 179.500 300.078 L 177.600 299.956 177.600 297.004 C 177.600 292.796,177.220 292.000,175.210 292.000 L 173.600 292.000 173.600 287.800 L 173.600 283.600 200.200 283.600 L 226.800 283.600 226.800 287.800 M190.000 332.600 L 190.000 336.800 188.243 336.800 C 186.094 336.800,186.000 336.995,186.000 341.433 C 186.000 344.741,185.983 344.800,185.019 344.800 C 182.382 344.800,182.000 345.390,182.000 349.464 L 182.000 353.200 180.000 353.200 L 178.000 353.200 178.000 355.200 L 178.000 357.200 174.224 357.200 C 170.115 357.200,170.116 357.200,169.624 359.694 C 169.410 360.781,169.272 356.872,169.244 348.921 L 169.200 336.442 171.300 336.321 L 173.400 336.200 173.521 334.321 L 173.642 332.442 175.521 332.321 L 177.400 332.200 177.522 330.300 L 177.644 328.400 183.822 328.400 L 190.000 328.400 190.000 332.600 M222.878 330.300 L 223.000 332.200 224.879 332.321 L 226.758 332.442 226.879 334.321 L 227.000 336.200 228.900 336.322 L 230.800 336.444 230.773 347.722 C 230.753 356.133,230.636 358.771,230.312 358.100 C 229.908 357.262,229.621 357.200,226.139 357.200 L 222.400 357.200 222.400 355.200 L 222.400 353.200 220.400 353.200 L 218.400 353.200 218.400 350.226 C 218.400 346.119,218.019 345.276,216.012 344.956 L 214.400 344.698 214.400 341.382 C 214.400 336.999,214.303 336.800,212.157 336.800 L 210.400 336.800 210.400 332.600 L 210.400 328.400 216.578 328.400 L 222.756 328.400 222.878 330.300 M202.400 426.400 L 202.400 438.800 200.200 438.800 L 198.000 438.800 198.000 426.400 L 198.000 414.000 200.200 414.000 L 202.400 414.000 202.400 426.400 " stroke="none" fill="#241c24" fill-rule="evenodd"></path><path id="path1" d="" stroke="none" fill="#242424" fill-rule="evenodd"></path></g></svg>
