<svg xmlns="http://www.w3.org/2000/svg" width="120px" height="120px"
viewBox="0 0 120.031 120">
  <path
    d="M62.59 54.58V2.11a2.127 2.127 0 0 0-4.254 0v52.34a15.194 15.194 0 0 0 0 30.23v33.21a2.127 2.127 0 0 0 4.254 0V84.55a15.178 15.178 0 0 0 0-29.97zm-2.567 25.98a11 11 0 1 1 11.077-11 11.055 11.055 0 0 1-11.077 11zm47.243-57.09V2.11a2.127 2.127 0 0 0-4.254 0v21.22a15.2 15.2 0 0 0 0 30.24v64.32a2.127 2.127 0 0 0 4.254 0V53.44a15.178 15.178 0 0 0 0-29.97zm-2.567 25.97a10.99 10.99 0 1 1 11.077-10.99 11.047 11.047 0 0 1-11.077 10.99zM17.915 22.69V2.11a2.128 2.128 0 0 0-4.255 0v20.45a15.194 15.194 0 0 0 0 30.23v65.1a2.128 2.128 0 0 0 4.255 0V52.66a15.178 15.178 0 0 0 0-29.97zm-2.568 25.98a11 11 0 1 1 11.077-11 11.055 11.055 0 0 1-11.077 11z"
    fill="#252525" fill-rule="evenodd"/>
</svg>
