<?xml version="1.0" encoding="utf-8"?>
<!-- Generator: Adobe Illustrator 21.1.0, SVG Export Plug-In . SVG Version: 6.00 Build 0)  -->
<svg version="1.1" id="Layer_1" xmlns="http://www.w3.org/2000/svg" xmlns:xlink="http://www.w3.org/1999/xlink" x="0px" y="0px"
	 viewBox="0 0 129 129" width="129px" height="129px" style="enable-background:new 0 0 129 129;" xml:space="preserve">
<path id="Smiley" d="M82.5,46.4c0-2.8,2.3-5.2,5.2-5.2c2.8,0,5.2,2.3,5.2,5.2c0,2.8-2.3,5.2-5.2,5.2
	c0,0,0,0,0,0C84.9,51.6,82.6,49.3,82.5,46.4z M41.3,51.6c2.8,0,5.2-2.3,5.2-5.2s-2.3-5.2-5.2-5.2c-2.8,0-5.2,2.3-5.2,5.2
	c0,0,0,0,0,0C36.1,49.3,38.4,51.6,41.3,51.6L41.3,51.6z M36.1,82.6v5.2c0,0,10.3,10.3,28.4,10.3s28.4-10.3,28.4-10.3v-5.2
	c0,0-10.3,10.3-28.4,10.3S36.1,82.6,36.1,82.6L36.1,82.6z M129,64.5c0,35.6-28.9,64.5-64.5,64.5S0,100.1,0,64.5S28.9,0,64.5,0
	C100.1,0,129,28.9,129,64.5z M123.8,64.5c0-32.8-26.6-59.3-59.3-59.3S5.2,31.7,5.2,64.5c0,32.8,26.6,59.3,59.3,59.3c0,0,0,0,0,0
	c32.6,0.2,59.1-26.1,59.3-58.7C123.8,64.9,123.8,64.7,123.8,64.5z"/>
</svg>
