<?xml version="1.0" encoding="utf-8"?>
<!-- Generator: Adobe Illustrator 21.1.0, SVG Export Plug-In . SVG Version: 6.00 Build 0)  -->
<svg version="1.1" id="Livello_1" xmlns="http://www.w3.org/2000/svg" xmlns:xlink="http://www.w3.org/1999/xlink" x="0px" y="0px"
	 viewBox="0 0 139.3 124.2" height="124px" width="139px" style="enable-background:new 0 0 139.3 124.2;" xml:space="preserve">
<g id="Livello_100">
	<path d="M139.3,49.1c0-3.3-2.8-5.9-6.1-5.9c-0.2,0-0.4,0-0.6,0l-42.4-1L75.5,4.3C74.8,1.8,72.4,0,69.6,0c-2.8,0-5.2,1.8-5.9,4.3
		L49.2,42.2l-42.4,1c-0.2,0-0.4,0-0.6,0c-3.4,0-6.1,2.7-6.1,5.9c0,2.1,1.1,3.9,2.8,5L36.6,78l-12.1,37.5c-0.4,0.8-0.7,1.7-0.7,2.7
		c0,3.3,2.8,6,6.1,6c1.4,0,2.8-0.5,3.8-1.3l35.8-22.7l35.8,22.7c1,0.8,2.4,1.3,3.8,1.3c3.4,0,6.1-2.7,6.1-6c0-1-0.2-1.9-0.7-2.7
		L102.7,78l33.8-23.9C138.1,53,139.3,51.2,139.3,49.1"/>
</g>
<g id="Livello_1_1_">
</g>
</svg>
