<?xml version="1.0" encoding="utf-8"?>
<!-- Generator: Adobe Illustrator 21.1.0, SVG Export Plug-In . SVG Version: 6.00 Build 0)  -->
<svg version="1.1" id="Layer_1" xmlns="http://www.w3.org/2000/svg" xmlns:xlink="http://www.w3.org/1999/xlink" x="0px" y="0px"
	 viewBox="0 0 105.4 131.2" width="106px" height="131px"  style="enable-background:new 0 0 105.4 131.2;" xml:space="preserve">
<path id="Support_copy" d="M52.8,75.8c20.9,0,37.9-17,37.9-37.9S73.7,0,52.7,0S14.8,17,14.9,37.9c0,0,0,0,0,0
	C14.9,58.8,31.8,75.8,52.8,75.8z M69.3,13.6c1.2,8.7,7.7,20.9,14.3,27c-1.5,17-16.5,29.6-33.5,28.1c-11-1-20.6-7.7-25.3-17.7
	c5.4,6.7,14.3,11.3,24.6,11.9c0.6,0.1,1.1,0.1,1.7,0.1c0.2,0,0.3,0,0.5,0h0c3.5-0.1,6.2-1.5,6.2-3.2c0-1.8-3-3.3-6.7-3.3
	s-6.7,1.5-6.7,3.3c0,0.2,0,0.3,0.1,0.5c-12.5-2.6-22-11.8-22.6-22.9c0-3.9,0.8-7.7,2.3-11.3C32.6,25.5,67.7,18.4,69.3,13.6z
	 M81.3,69.3c-7.7,7.1-17.8,11-28.3,11.1v0c-0.1,0-0.2,0-0.2,0c-0.1,0-0.1,0-0.2,0v0c-10.5-0.1-20.6-4-28.3-11.1
	C10.2,71.9,0,84.1,0,98.4v32.9h105.4V98.4C105.4,84.1,95.3,71.9,81.3,69.3z"/>
</svg>
