<svg xmlns="http://www.w3.org/2000/svg" width="120" height="114"><path d="M120 44.97a40.75 40.75 0 0 0-36.864-40.5A6.225 6.225 0 0 0 77.164 0H42.838a6.227 6.227 0 0 0-5.973 4.47A40.751 40.751 0 0 0 0 44.97v32.51A12.565 12.565 0 0 0 12.578 90h9.791a5.279 5.279 0 0 0 5.285-5.26V50.2a5.279 5.279 0 0 0-5.285-5.26h-9.791a12.58 12.58 0 0 0-8.17 3.01v-2.98A36.365 36.365 0 0 1 37.219 8.84a6.235 6.235 0 0 0 5.619 3.55h34.324a6.236 6.236 0 0 0 5.619-3.55 36.359 36.359 0 0 1 32.809 36.14v2.97a12.524 12.524 0 0 0-8.168-3.01H97.63a5.278 5.278 0 0 0-5.284 5.26v34.54A5.278 5.278 0 0 0 97.63 90h9.792a12.537 12.537 0 0 0 8.17-3.02v1.6a15.082 15.082 0 0 1-15.1 15.03H73.781a8.247 8.247 0 0 0-7.932-6H57.81a8.2 8.2 0 1 0 0 16.39h8.039a8.235 8.235 0 0 0 7.932-6h26.708A19.487 19.487 0 0 0 120 88.58zM23.248 50.2v34.54a.874.874 0 0 1-.877.87h-.876V49.33h.876a.874.874 0 0 1 .875.87zm-10.668-.87h4.507v36.28H12.58a8.161 8.161 0 0 1-8.17-8.13V57.46a8.155 8.155 0 0 1 8.168-8.13zM77.162 8H42.838a1.805 1.805 0 1 1 0-3.61h34.324a1.805 1.805 0 1 1 0 3.61zm19.591 76.74V50.2a.875.875 0 0 1 .877-.87h.877v36.28h-.877a.875.875 0 0 1-.877-.87zm-30.9 24.87H57.81a3.805 3.805 0 1 1 0-7.61h8.039a3.805 3.805 0 1 1 0 7.61zm41.573-24h-4.507V49.33h4.507a8.155 8.155 0 0 1 8.17 8.13v20.02a8.161 8.161 0 0 1-8.174 8.13z" fill="#222" fill-rule="evenodd"/></svg>