<?xml version="1.0" encoding="utf-8"?>
<!-- Generator: Adobe Illustrator 21.1.0, SVG Export Plug-In . SVG Version: 6.00 Build 0)  -->
<svg version="1.1" id="Layer_1" xmlns="http://www.w3.org/2000/svg" xmlns:xlink="http://www.w3.org/1999/xlink" x="0px" y="0px"
	 viewBox="0 0 118.2 81.5" width="118px" height="82px" style="enable-background:new 0 0 118.2 81.5;" xml:space="preserve">
<path id="Youtube_Icon" d="M100.9,0H17.3C7.8,0,0,7.8,0,17.3v46.9c0,9.6,7.8,17.3,17.3,17.3h83.6
	c9.6,0,17.3-7.8,17.3-17.3V17.3C118.2,7.8,110.4,0,100.9,0z M113.9,64.2c0,7.2-5.8,13-13,13H17.3c-7.2,0-13-5.8-13-13V17.3
	c0-7.2,5.8-13,13-13h83.6c7.2,0,13,5.8,13,13V64.2L113.9,64.2z M77.1,39.1L47.9,22.3c-1-0.6-2.3-0.2-2.9,0.8
	c-0.2,0.3-0.3,0.7-0.3,1.1v33.6c0,1.2,1,2.2,2.2,2.2c0.4,0,0.8-0.1,1.1-0.3l29.1-16.8c1-0.6,1.4-1.9,0.8-2.9
	C77.7,39.6,77.4,39.3,77.1,39.1z M49,54V27.9L71.7,41L49,54z"/>
</svg>
